<?xml version="1.0" encoding="UTF-8"?> <svg xmlns="http://www.w3.org/2000/svg" xmlns:xlink="http://www.w3.org/1999/xlink" viewBox="0 0 350 120"><defs><style>.cls-1{isolation:isolate;}.cls-2{clip-path:url(#clip-path);}.cls-10,.cls-14,.cls-3,.cls-42,.cls-9{fill:none;}.cls-4{fill:url(#linear-gradient);}.cls-5{clip-path:url(#clip-path-2);}.cls-6{fill:url(#linear-gradient-2);}.cls-7{clip-path:url(#clip-path-3);}.cls-58,.cls-8{fill:#231f20;}.cls-9{stroke:#231f20;stroke-width:0.73px;}.cls-14,.cls-42,.cls-9{stroke-miterlimit:10;}.cls-10{stroke:#414042;stroke-width:0.62px;}.cls-11{fill:#e21e30;}.cls-12{clip-path:url(#clip-path-6);}.cls-13{fill:url(#linear-gradient-3);}.cls-14{stroke:#fff;stroke-width:1.1px;}.cls-15{font-size:9.35px;}.cls-15,.cls-16,.cls-17,.cls-18,.cls-19,.cls-20,.cls-21,.cls-22,.cls-23,.cls-24,.cls-25,.cls-26,.cls-27,.cls-28,.cls-29,.cls-30,.cls-31,.cls-32,.cls-33,.cls-34,.cls-35,.cls-36,.cls-37,.cls-38,.cls-39,.cls-40,.cls-41{fill:#fff;}.cls-15,.cls-16,.cls-17,.cls-18,.cls-19,.cls-20,.cls-21,.cls-22,.cls-23,.cls-24,.cls-25,.cls-26,.cls-27,.cls-28,.cls-29,.cls-30,.cls-31,.cls-32,.cls-33,.cls-34,.cls-35,.cls-36,.cls-37,.cls-38,.cls-39{font-family:AGaramondPro-Bold, Adobe Garamond Pro;font-weight:700;}.cls-16{font-size:9.35px;}.cls-17{font-size:9.35px;}.cls-18{font-size:9.35px;}.cls-19{font-size:9.35px;}.cls-20{font-size:9.35px;}.cls-21{font-size:9.35px;}.cls-22{font-size:9.35px;}.cls-23{font-size:9.35px;}.cls-24{font-size:9.35px;}.cls-25{font-size:9.35px;}.cls-26{font-size:9.35px;}.cls-27{font-size:9.35px;}.cls-28{font-size:9.35px;}.cls-29{font-size:9.35px;}.cls-30{font-size:9.35px;}.cls-31{font-size:9.35px;}.cls-32{font-size:9.35px;}.cls-33{font-size:9.35px;}.cls-34{font-size:9.35px;}.cls-35{font-size:9.35px;}.cls-36{font-size:9.35px;}.cls-37{font-size:9.35px;}.cls-38{font-size:9.35px;}.cls-39{font-size:9.35px;}.cls-41,.cls-43,.cls-57,.cls-58{fill-rule:evenodd;}.cls-42{stroke:#e21e30;stroke-width:0.62px;}.cls-43{fill:#eb1c2d;}.cls-44{clip-path:url(#clip-path-10);}.cls-45{mix-blend-mode:multiply;}.cls-46{clip-path:url(#clip-path-11);}.cls-47{clip-path:url(#clip-path-12);}.cls-48{mask:url(#mask);}.cls-49{clip-path:url(#clip-path-14);}.cls-50{fill:url(#linear-gradient-4);}.cls-51{clip-path:url(#clip-path-16);}.cls-52{clip-path:url(#clip-path-17);}.cls-53{clip-path:url(#clip-path-18);}.cls-54{mask:url(#mask-2);}.cls-55{clip-path:url(#clip-path-20);}.cls-56{fill:url(#linear-gradient-5);}.cls-57{fill:#e02829;}</style><clipPath id="clip-path"><rect class="cls-3" x="192.55" y="95.21" width="14.62" height="14.65" transform="translate(-2.37 200.32) rotate(-52.96)"></rect></clipPath><linearGradient id="linear-gradient" x1="8.02" y1="-20.29" x2="9.47" y2="-20.29" gradientTransform="translate(247.43 -20.56) rotate(180) scale(5.36 6.07)" gradientUnits="userSpaceOnUse"><stop offset="0" stop-color="#fff"></stop><stop offset="0.13" stop-color="#cfcecf"></stop><stop offset="0.3" stop-color="#9b9a9a"></stop><stop offset="0.46" stop-color="#706e6e"></stop><stop offset="0.61" stop-color="#4f4b4c"></stop><stop offset="0.76" stop-color="#373334"></stop><stop offset="0.89" stop-color="#282425"></stop><stop offset="1" stop-color="#231f20"></stop></linearGradient><clipPath id="clip-path-2"><rect class="cls-3" x="192.54" y="99.53" width="14.65" height="14.62" transform="translate(-24.03 141.95) rotate(-37.04)"></rect></clipPath><linearGradient id="linear-gradient-2" x1="-24.8" y1="-1.61" x2="-23.35" y2="-1.61" gradientTransform="matrix(0, -5.36, 6.07, 0, 209.65, -21.66)" xlink:href="#linear-gradient"></linearGradient><clipPath id="clip-path-3"><rect class="cls-3" x="13.63" y="7.17" width="322.74" height="105.66"></rect></clipPath><clipPath id="clip-path-6"><path class="cls-3" d="M13.82,60A52.64,52.64,0,1,0,66.46,7.37,52.7,52.7,0,0,0,13.82,60"></path></clipPath><linearGradient id="linear-gradient-3" x1="-0.87" y1="-1.23" x2="0.58" y2="-1.23" gradientTransform="matrix(72.53, 0, 0, -72.53, 77.13, -29.42)" gradientUnits="userSpaceOnUse"><stop offset="0" stop-color="#231f20"></stop><stop offset="0.13" stop-color="#252123"></stop><stop offset="0.22" stop-color="#2d2a2b"></stop><stop offset="0.28" stop-color="#3b3839"></stop><stop offset="0.34" stop-color="#4e4c4e"></stop><stop offset="0.39" stop-color="#676668"></stop><stop offset="0.44" stop-color="#868688"></stop><stop offset="0.49" stop-color="#a9abae"></stop><stop offset="0.5" stop-color="#b1b3b6"></stop><stop offset="0.51" stop-color="#a3a5a7"></stop><stop offset="0.52" stop-color="#959799"></stop><stop offset="0.53" stop-color="#8c8e91"></stop><stop offset="0.55" stop-color="#8a8c8e"></stop><stop offset="0.56" stop-color="#848688"></stop><stop offset="0.61" stop-color="#666668"></stop><stop offset="0.66" stop-color="#4e4c4d"></stop><stop offset="0.72" stop-color="#3b3839"></stop><stop offset="0.79" stop-color="#2d2a2b"></stop><stop offset="0.87" stop-color="#252223"></stop><stop offset="1" stop-color="#231f20"></stop></linearGradient><clipPath id="clip-path-10"><path class="cls-3" d="M198.82,100.8c-1.53.77-2.53,1.76-2.53,3,4.89.51,5.13-.89,7.14-2.14a10.2,10.2,0,0,0-4.39-.85h-.22"></path></clipPath><clipPath id="clip-path-11"><rect class="cls-3" x="189.61" y="92.29" width="20.5" height="20.5"></rect></clipPath><clipPath id="clip-path-12"><rect class="cls-3" x="196.31" y="98.63" width="7.11" height="7.82" transform="translate(-2.38 200.3) rotate(-52.96)"></rect></clipPath><mask id="mask" x="179.76" y="82.43" width="40.22" height="40.22" maskUnits="userSpaceOnUse"><rect x="189.61" y="92.29" width="20.5" height="20.5"></rect><g class="cls-1"><g class="cls-2"><rect class="cls-4" x="185.51" y="88.18" width="28.71" height="28.71" transform="translate(-2.38 200.3) rotate(-52.96)"></rect></g></g></mask><clipPath id="clip-path-14"><rect class="cls-3" x="192.55" y="95.21" width="14.62" height="14.65" transform="translate(-2.37 200.32) rotate(-52.96)"></rect></clipPath><linearGradient id="linear-gradient-4" x1="8.02" y1="-20.29" x2="9.47" y2="-20.29" gradientTransform="translate(247.43 -20.56) rotate(180) scale(5.36 6.07)" gradientUnits="userSpaceOnUse"><stop offset="0" stop-color="#383636"></stop><stop offset="1" stop-color="#383636"></stop></linearGradient><clipPath id="clip-path-16"><path class="cls-3" d="M196.29,105.6c0,1.23,1,2.21,2.53,3a10.41,10.41,0,0,0,4.61-.85c-1.72-1.07-2.14-2.24-5.28-2.24a16.51,16.51,0,0,0-1.86.11"></path></clipPath><clipPath id="clip-path-17"><rect class="cls-3" x="189.61" y="96.59" width="20.5" height="20.5"></rect></clipPath><clipPath id="clip-path-18"><rect class="cls-3" x="195.96" y="103.29" width="7.82" height="7.11" transform="translate(-24.02 141.99) rotate(-37.05)"></rect></clipPath><mask id="mask-2" x="179.76" y="86.73" width="40.21" height="40.21" maskUnits="userSpaceOnUse"><rect x="189.61" y="96.59" width="20.5" height="20.5"></rect><g class="cls-1"><g class="cls-5"><rect class="cls-6" x="185.51" y="92.49" width="28.71" height="28.71" transform="translate(-24.03 141.96) rotate(-37.04)"></rect></g></g></mask><clipPath id="clip-path-20"><rect class="cls-3" x="192.54" y="99.53" width="14.65" height="14.62" transform="translate(-24.03 141.95) rotate(-37.04)"></rect></clipPath><linearGradient id="linear-gradient-5" x1="-24.8" y1="-1.61" x2="-23.35" y2="-1.61" gradientTransform="matrix(0, -5.36, 6.07, 0, 209.65, -21.66)" xlink:href="#linear-gradient-4"></linearGradient></defs><title>its</title><g class="cls-1"><g id="Layer_1" data-name="Layer 1"><g id="ITS_novi_2019_CMYK" data-name="ITS novi 2019 CMYK"><g class="cls-7"><g class="cls-7"><g class="cls-7"><path class="cls-8" d="M225.83,10.64c0-1.67,0-1.94-1-2l-.39,0c-.09-.06-.06-.35,0-.39.79,0,1.33,0,2,0s1.16,0,1.95,0c.1,0,.13.33,0,.39l-.39,0c-.93.08-1,.35-1,2v5.61c0,1.67,0,1.89,1,2l.39.05c.1.06.07.35,0,.39-.79,0-1.32,0-1.95,0s-1.2,0-2,0c-.09,0-.12-.3,0-.39l.39-.05c.94-.11,1-.33,1-2Z"></path><path class="cls-9" d="M225.83,10.64c0-1.67,0-1.94-1-2l-.39,0c-.09-.06-.06-.35,0-.39.79,0,1.33,0,2,0s1.16,0,1.95,0c.1,0,.13.33,0,.39l-.39,0c-.93.08-1,.35-1,2v5.61c0,1.67,0,1.89,1,2l.39.05c.1.06.07.35,0,.39-.79,0-1.32,0-1.95,0s-1.2,0-2,0c-.09,0-.12-.3,0-.39l.39-.05c.94-.11,1-.33,1-2Z"></path><path class="cls-8" d="M239.47,16c0,.47,0,2.35.05,2.76a.29.29,0,0,1-.3.17c-.19-.27-.65-.82-2-2.38l-3.65-4.16c-.43-.49-1.5-1.78-1.83-2.13h0a3.58,3.58,0,0,0-.09,1v3.44a12.21,12.21,0,0,0,.29,3.26c.1.18.41.27.81.3l.48.05a.28.28,0,0,1,0,.39c-.71,0-1.26,0-1.84,0s-1.09,0-1.64,0a.28.28,0,0,1,0-.39l.42-.05c.36-.05.62-.14.69-.31a14.65,14.65,0,0,0,.21-3.25V10.13A1.44,1.44,0,0,0,230.61,9a1.73,1.73,0,0,0-1-.38l-.27,0c-.1-.09-.1-.33,0-.39.66,0,1.5,0,1.78,0a5.54,5.54,0,0,0,.73,0,21.86,21.86,0,0,0,2.69,3.47l1.53,1.71c1.09,1.22,1.86,2.1,2.6,2.86h0a1.49,1.49,0,0,0,.07-.67V12.2a11,11,0,0,0-.32-3.26c-.1-.14-.35-.24-1-.32l-.27,0c-.1-.09-.09-.35,0-.39.72,0,1.26,0,1.85,0s1.09,0,1.63,0a.28.28,0,0,1,0,.39l-.22,0c-.51.08-.82.21-.88.33a12.67,12.67,0,0,0-.24,3.25Z"></path><path class="cls-9" d="M239.47,16c0,.47,0,2.35.05,2.76a.29.29,0,0,1-.3.17c-.19-.27-.65-.82-2-2.38l-3.65-4.16c-.43-.49-1.5-1.78-1.83-2.13h0a3.58,3.58,0,0,0-.09,1v3.44a12.21,12.21,0,0,0,.29,3.26c.1.18.41.27.81.3l.48.05a.28.28,0,0,1,0,.39c-.71,0-1.26,0-1.84,0s-1.09,0-1.64,0a.28.28,0,0,1,0-.39l.42-.05c.36-.05.62-.14.69-.31a14.65,14.65,0,0,0,.21-3.25V10.13A1.44,1.44,0,0,0,230.61,9a1.73,1.73,0,0,0-1-.38l-.27,0c-.1-.09-.1-.33,0-.39.66,0,1.5,0,1.78,0a5.54,5.54,0,0,0,.73,0,21.86,21.86,0,0,0,2.69,3.47l1.53,1.71c1.09,1.22,1.86,2.1,2.6,2.86h0a1.49,1.49,0,0,0,.07-.67V12.2a11,11,0,0,0-.32-3.26c-.1-.14-.35-.24-1-.32l-.27,0c-.1-.09-.09-.35,0-.39.72,0,1.26,0,1.85,0s1.09,0,1.63,0a.28.28,0,0,1,0,.39l-.22,0c-.51.08-.82.21-.88.33a12.67,12.67,0,0,0-.24,3.25Z"></path><path class="cls-8" d="M244.46,12.69c0,.42,0,.42.52.42h1.07a6.16,6.16,0,0,0,1.34-.09c.18-.06.3-.14.4-.55l.14-.63a.32.32,0,0,1,.41,0c0,.38-.06,1-.06,1.59s.06,1.16.06,1.53c-.06.09-.3.09-.41,0l-.16-.62a.77.77,0,0,0-.5-.6,5.59,5.59,0,0,0-1.22-.08H245c-.47,0-.52,0-.52.43v2.19c0,1.66,0,1.89,1,2l.54.05c.09.06.06.35,0,.39-.93,0-1.47,0-2.1,0s-1.23,0-2,0c-.09,0-.12-.3,0-.39l.39-.05c.92-.11.95-.31.95-2V10.61c0-1.66,0-1.88-.95-2l-.25,0c-.09-.06-.06-.35,0-.39.66,0,1.2,0,1.83,0h2.9c1,0,1.92,0,2.13,0,0,.72,0,1.48,0,2.08a.28.28,0,0,1-.37.05c-.13-.72-.32-1.3-1.1-1.5a6.41,6.41,0,0,0-1.53-.1h-1c-.47,0-.47,0-.47.63Z"></path><path class="cls-9" d="M244.46,12.69c0,.42,0,.42.52.42h1.07a6.16,6.16,0,0,0,1.34-.09c.18-.06.3-.14.4-.55l.14-.63a.32.32,0,0,1,.41,0c0,.38-.06,1-.06,1.59s.06,1.16.06,1.53c-.06.09-.3.09-.41,0l-.16-.62a.77.77,0,0,0-.5-.6,5.59,5.59,0,0,0-1.22-.08H245c-.47,0-.52,0-.52.43v2.19c0,1.66,0,1.89,1,2l.54.05c.09.06.06.35,0,.39-.93,0-1.47,0-2.1,0s-1.23,0-2,0c-.09,0-.12-.3,0-.39l.39-.05c.92-.11.95-.31.95-2V10.61c0-1.66,0-1.88-.95-2l-.25,0c-.09-.06-.06-.35,0-.39.66,0,1.2,0,1.83,0h2.9c1,0,1.92,0,2.13,0,0,.72,0,1.48,0,2.08a.28.28,0,0,1-.37.05c-.13-.72-.32-1.3-1.1-1.5a6.41,6.41,0,0,0-1.53-.1h-1c-.47,0-.47,0-.47.63Z"></path><path class="cls-8" d="M250.19,13.56A5.45,5.45,0,0,1,255.81,8a5.19,5.19,0,0,1,5.46,5.41,5.38,5.38,0,0,1-5.46,5.5,5.32,5.32,0,0,1-5.62-5.34m9.51.33c0-2.6-1.15-5.41-4.16-5.41-1.64,0-3.77,1.12-3.77,4.57,0,2.33,1.14,5.36,4.24,5.36,1.89,0,3.69-1.42,3.69-4.52"></path><path class="cls-9" d="M250.19,13.56A5.45,5.45,0,0,1,255.81,8a5.19,5.19,0,0,1,5.46,5.41,5.38,5.38,0,0,1-5.46,5.5A5.32,5.32,0,0,1,250.19,13.56Zm9.51.33c0-2.6-1.15-5.41-4.16-5.41-1.64,0-3.77,1.12-3.77,4.57,0,2.33,1.14,5.36,4.24,5.36C257.9,18.41,259.7,17,259.7,13.89Z"></path><path class="cls-8" d="M263.85,10.62c0-1.49-.05-1.76-.69-1.84l-.51-.06a.27.27,0,0,1,0-.4c.88-.08,2-.12,3.51-.12a5.6,5.6,0,0,1,2.63.47,2.34,2.34,0,0,1,1.31,2.21,2.92,2.92,0,0,1-2,2.63c-.08.09,0,.25.08.38a17.09,17.09,0,0,0,3.17,4.19,1.85,1.85,0,0,0,1.09.44.13.13,0,0,1,0,.22,2.31,2.31,0,0,1-.69.08c-1.34,0-2.14-.39-3.26-2-.41-.59-1.06-1.68-1.55-2.39a1.12,1.12,0,0,0-1.12-.5c-.71,0-.74,0-.74.35v2c0,1.66,0,1.85.95,2l.33.05a.3.3,0,0,1,0,.39c-.71,0-1.25,0-1.88,0s-1.23,0-2,0a.3.3,0,0,1,0-.39l.4-.05c.91-.11.94-.31.94-2Zm1.29,2.26a1.21,1.21,0,0,0,.05.52c.05,0,.29.08,1.09.08a2.63,2.63,0,0,0,1.62-.42,2.23,2.23,0,0,0,.79-2,2.32,2.32,0,0,0-2.52-2.42c-1,0-1,.06-1,.5Z"></path><path class="cls-9" d="M263.85,10.62c0-1.49-.05-1.76-.69-1.84l-.51-.06a.27.27,0,0,1,0-.4c.88-.08,2-.12,3.51-.12a5.6,5.6,0,0,1,2.63.47,2.34,2.34,0,0,1,1.31,2.21,2.92,2.92,0,0,1-2,2.63c-.08.09,0,.25.08.38a17.09,17.09,0,0,0,3.17,4.19,1.85,1.85,0,0,0,1.09.44.13.13,0,0,1,0,.22,2.31,2.31,0,0,1-.69.08c-1.34,0-2.14-.39-3.26-2-.41-.59-1.06-1.68-1.55-2.39a1.12,1.12,0,0,0-1.12-.5c-.71,0-.74,0-.74.35v2c0,1.66,0,1.85.95,2l.33.05a.3.3,0,0,1,0,.39c-.71,0-1.25,0-1.88,0s-1.23,0-2,0a.3.3,0,0,1,0-.39l.4-.05c.91-.11.94-.31.94-2Zm1.29,2.26a1.21,1.21,0,0,0,.05.52c.05,0,.29.08,1.09.08a2.63,2.63,0,0,0,1.62-.42,2.23,2.23,0,0,0,.79-2,2.32,2.32,0,0,0-2.52-2.42c-1,0-1,.06-1,.5Z"></path><path class="cls-8" d="M278,14.44c.36.74.7,1.46,1.08,2.16h0c.42-.74.81-1.57,1.21-2.37l1.48-3a9.17,9.17,0,0,0,1.2-3c.53,0,.86,0,1.18,0s.92,0,1.4,0a.32.32,0,0,1,0,.39l-.33,0c-1,.1-1.12.4-1.11,1.5,0,1.67.05,4.59.18,6.86.05.78,0,1.21.77,1.27l.5.05a.27.27,0,0,1,0,.39c-.64,0-1.29,0-1.85,0s-1.27,0-1.91,0a.28.28,0,0,1,0-.39l.45-.05c.78-.08.78-.33.78-1.34L283,10.34h0c-.1.17-.7,1.43-1,2.05l-1.4,2.76c-.71,1.38-1.42,2.87-1.71,3.59,0,.05-.09.06-.15.06a.18.18,0,0,1-.14-.06c-.27-.84-1-2.38-1.39-3.15l-1.42-3c-.33-.73-.66-1.55-1-2.27h0c-.06,1-.11,1.89-.16,2.8s-.11,2.37-.11,3.71c0,1.16.1,1.41.71,1.46l.6.05c.11.09.1.35,0,.39-.54,0-1.15,0-1.75,0s-1.07,0-1.61,0a.29.29,0,0,1,0-.39l.34-.05c.66-.09.89-.19,1-1.29s.18-1.91.27-3.47c.08-1.31.14-2.64.17-3.51S274,8.75,273,8.62l-.25,0a.29.29,0,0,1,.05-.39c.48,0,.86,0,1.25,0s.79,0,1.31,0a6.07,6.07,0,0,0,.82,2.6Z"></path><path class="cls-9" d="M278,14.44c.36.74.7,1.46,1.08,2.16h0c.42-.74.81-1.57,1.21-2.37l1.48-3a9.17,9.17,0,0,0,1.2-3c.53,0,.86,0,1.18,0s.92,0,1.4,0a.32.32,0,0,1,0,.39l-.33,0c-1,.1-1.12.4-1.11,1.5,0,1.67.05,4.59.18,6.86.05.78,0,1.21.77,1.27l.5.05a.27.27,0,0,1,0,.39c-.64,0-1.29,0-1.85,0s-1.27,0-1.91,0a.28.28,0,0,1,0-.39l.45-.05c.78-.08.78-.33.78-1.34L283,10.34h0c-.1.17-.7,1.43-1,2.05l-1.4,2.76c-.71,1.38-1.42,2.87-1.71,3.59,0,.05-.09.06-.15.06a.18.18,0,0,1-.14-.06c-.27-.84-1-2.38-1.39-3.15l-1.42-3c-.33-.73-.66-1.55-1-2.27h0c-.06,1-.11,1.89-.16,2.8s-.11,2.37-.11,3.71c0,1.16.1,1.41.71,1.46l.6.05c.11.09.1.35,0,.39-.54,0-1.15,0-1.75,0s-1.07,0-1.61,0a.29.29,0,0,1,0-.39l.34-.05c.66-.09.89-.19,1-1.29s.18-1.91.27-3.47c.08-1.31.14-2.64.17-3.51S274,8.75,273,8.62l-.25,0a.29.29,0,0,1,.05-.39c.48,0,.86,0,1.25,0s.79,0,1.31,0a6.07,6.07,0,0,0,.82,2.6Z"></path><path class="cls-8" d="M292.46,15c-.11-.35-.17-.4-.65-.4h-2.38c-.39,0-.48.05-.6.38l-.55,1.66a6.48,6.48,0,0,0-.35,1.31c0,.19.08.28.46.31l.52.05a.24.24,0,0,1,0,.39c-.41,0-.9,0-1.64,0-.52,0-1.08,0-1.51,0a.29.29,0,0,1,0-.39l.52-.05a1,1,0,0,0,.94-.77c.29-.73.73-1.75,1.39-3.52l1.61-4.25a2.38,2.38,0,0,0,.27-1.12,1.68,1.68,0,0,0,.81-.6.22.22,0,0,1,.24.14c.21.7.46,1.42.7,2.12l2.16,6.33c.45,1.36.66,1.59,1.34,1.67l.42.05a.3.3,0,0,1,0,.39c-.65,0-1.2,0-1.91,0s-1.35,0-1.81,0a.26.26,0,0,1,0-.39l.46-.05c.33,0,.55-.12.55-.28a3.11,3.11,0,0,0-.21-.84Zm-3.12-1.4c-.13.36-.11.37.33.37h1.94c.46,0,.49-.06.35-.48l-.86-2.57a10.24,10.24,0,0,0-.36-1h0a8,8,0,0,0-.38.94Z"></path><path class="cls-9" d="M292.46,15c-.11-.35-.17-.4-.65-.4h-2.38c-.39,0-.48.05-.6.38l-.55,1.66a6.48,6.48,0,0,0-.35,1.31c0,.19.08.28.46.31l.52.05a.24.24,0,0,1,0,.39c-.41,0-.9,0-1.64,0-.52,0-1.08,0-1.51,0a.29.29,0,0,1,0-.39l.52-.05a1,1,0,0,0,.94-.77c.29-.73.73-1.75,1.39-3.52l1.61-4.25a2.38,2.38,0,0,0,.27-1.12,1.68,1.68,0,0,0,.81-.6.22.22,0,0,1,.24.14c.21.7.46,1.42.7,2.12l2.16,6.33c.45,1.36.66,1.59,1.34,1.67l.42.05a.3.3,0,0,1,0,.39c-.65,0-1.2,0-1.91,0s-1.35,0-1.81,0a.26.26,0,0,1,0-.39l.46-.05c.33,0,.55-.12.55-.28a3.11,3.11,0,0,0-.21-.84Zm-3.12-1.4c-.13.36-.11.37.33.37h1.94c.46,0,.49-.06.35-.48l-.86-2.57a10.24,10.24,0,0,0-.36-1h0a8,8,0,0,0-.38.94Z"></path><path class="cls-8" d="M301.5,16.28c0,1.66,0,1.89.95,2l.5.05c.1.06.06.35,0,.39-.9,0-1.43,0-2.07,0s-1.18,0-2.19,0a.28.28,0,0,1,0-.39l.57-.05c.9-.08,1-.31,1-2v-7c0-.49,0-.51-.47-.51h-.87a3.18,3.18,0,0,0-1.94.4,2.78,2.78,0,0,0-.71,1.08.3.3,0,0,1-.41-.11,16.58,16.58,0,0,0,.6-2.35.44.44,0,0,1,.3,0c.09.51.62.49,1.34.49h6.38c.85,0,1,0,1.23-.44.08,0,.25,0,.28,0a9.56,9.56,0,0,0-.23,2.4c-.06.12-.33.12-.41,0-.05-.4-.16-1-.4-1.15a3.1,3.1,0,0,0-1.82-.4H302c-.47,0-.46,0-.46.54Z"></path><path class="cls-9" d="M301.5,16.28c0,1.66,0,1.89.95,2l.5.05c.1.06.06.35,0,.39-.9,0-1.43,0-2.07,0s-1.18,0-2.19,0a.28.28,0,0,1,0-.39l.57-.05c.9-.08,1-.31,1-2v-7c0-.49,0-.51-.47-.51h-.87a3.18,3.18,0,0,0-1.94.4,2.78,2.78,0,0,0-.71,1.08.3.3,0,0,1-.41-.11,16.58,16.58,0,0,0,.6-2.35.44.44,0,0,1,.3,0c.09.51.62.49,1.34.49h6.38c.85,0,1,0,1.23-.44.08,0,.25,0,.28,0a9.56,9.56,0,0,0-.23,2.4c-.06.12-.33.12-.41,0-.05-.4-.16-1-.4-1.15a3.1,3.1,0,0,0-1.82-.4H302c-.47,0-.46,0-.46.54Z"></path><path class="cls-8" d="M308,10.64c0-1.67,0-1.94-1-2l-.4,0c-.09-.06-.06-.35,0-.39.79,0,1.33,0,2,0s1.16,0,1.95,0c.09,0,.13.33,0,.39l-.4,0c-.93.08-1,.35-1,2v5.61c0,1.67,0,1.89,1,2l.4.05c.09.06.05.35,0,.39-.79,0-1.32,0-1.95,0s-1.2,0-2,0c-.09,0-.12-.3,0-.39l.4-.05c.93-.11,1-.33,1-2Z"></path><path class="cls-9" d="M308,10.64c0-1.67,0-1.94-1-2l-.4,0c-.09-.06-.06-.35,0-.39.79,0,1.33,0,2,0s1.16,0,1.95,0c.09,0,.13.33,0,.39l-.4,0c-.93.08-1,.35-1,2v5.61c0,1.67,0,1.89,1,2l.4.05c.09.06.05.35,0,.39-.79,0-1.32,0-1.95,0s-1.2,0-2,0c-.09,0-.12-.3,0-.39l.4-.05c.93-.11,1-.33,1-2Z"></path><path class="cls-8" d="M311.83,13.56A5.45,5.45,0,0,1,317.44,8a5.19,5.19,0,0,1,5.47,5.41,5.38,5.38,0,0,1-5.47,5.5,5.31,5.31,0,0,1-5.61-5.34m9.51.33c0-2.6-1.15-5.41-4.17-5.41-1.64,0-3.76,1.12-3.76,4.57,0,2.33,1.13,5.36,4.24,5.36,1.89,0,3.69-1.42,3.69-4.52"></path><path class="cls-9" d="M311.83,13.56A5.45,5.45,0,0,1,317.44,8a5.19,5.19,0,0,1,5.47,5.41,5.38,5.38,0,0,1-5.47,5.5A5.31,5.31,0,0,1,311.83,13.56Zm9.51.33c0-2.6-1.15-5.41-4.17-5.41-1.64,0-3.76,1.12-3.76,4.57,0,2.33,1.13,5.36,4.24,5.36C319.54,18.41,321.34,17,321.34,13.89Z"></path><path class="cls-8" d="M334,16c0,.47,0,2.35,0,2.76,0,.09-.12.17-.3.17-.18-.27-.64-.82-2-2.38L328,12.36c-.42-.49-1.49-1.78-1.83-2.13h0a4.11,4.11,0,0,0-.08,1v3.44a12.21,12.21,0,0,0,.29,3.26c.09.18.41.27.8.3l.49.05a.29.29,0,0,1,0,.39c-.71,0-1.26,0-1.84,0s-1.09,0-1.65,0a.3.3,0,0,1,0-.39l.43-.05c.36-.05.61-.14.69-.31a15.27,15.27,0,0,0,.21-3.25V10.13A1.44,1.44,0,0,0,325.11,9a1.74,1.74,0,0,0-1-.38l-.26,0c-.1-.09-.1-.33,0-.39.66,0,1.49,0,1.78,0a5.29,5.29,0,0,0,.72,0,22.52,22.52,0,0,0,2.7,3.47l1.53,1.71c1.09,1.22,1.86,2.1,2.6,2.86h0a1.72,1.72,0,0,0,.06-.67V12.2A11.05,11.05,0,0,0,333,8.94c-.1-.14-.35-.24-1-.32l-.27,0c-.11-.09-.09-.35,0-.39.73,0,1.26,0,1.86,0s1.09,0,1.63,0a.28.28,0,0,1,0,.39l-.22,0c-.51.08-.82.21-.88.33A12.67,12.67,0,0,0,334,12.2Z"></path><path class="cls-9" d="M334,16c0,.47,0,2.35,0,2.76,0,.09-.12.17-.3.17-.18-.27-.64-.82-2-2.38L328,12.36c-.42-.49-1.49-1.78-1.83-2.13h0a4.11,4.11,0,0,0-.08,1v3.44a12.21,12.21,0,0,0,.29,3.26c.09.18.41.27.8.3l.49.05a.29.29,0,0,1,0,.39c-.71,0-1.26,0-1.84,0s-1.09,0-1.65,0a.3.3,0,0,1,0-.39l.43-.05c.36-.05.61-.14.69-.31a15.27,15.27,0,0,0,.21-3.25V10.13A1.44,1.44,0,0,0,325.11,9a1.74,1.74,0,0,0-1-.38l-.26,0c-.1-.09-.1-.33,0-.39.66,0,1.49,0,1.78,0a5.29,5.29,0,0,0,.72,0,22.52,22.52,0,0,0,2.7,3.47l1.53,1.71c1.09,1.22,1.86,2.1,2.6,2.86h0a1.72,1.72,0,0,0,.06-.67V12.2A11.05,11.05,0,0,0,333,8.94c-.1-.14-.35-.24-1-.32l-.27,0c-.11-.09-.09-.35,0-.39.73,0,1.26,0,1.86,0s1.09,0,1.63,0a.28.28,0,0,1,0,.39l-.22,0c-.51.08-.82.21-.88.33A12.67,12.67,0,0,0,334,12.2Z"></path><path class="cls-8" d="M229.76,38c0,1.7,0,1.94,1,2l.51,0c.1.06.07.35,0,.4-.92,0-1.47,0-2.12,0s-1.21,0-2.25,0a.28.28,0,0,1,0-.4l.59,0c.92-.08,1-.32,1-2V30.78c0-.51,0-.52-.49-.52h-.89a3.3,3.3,0,0,0-2,.4,2.81,2.81,0,0,0-.73,1.12.32.32,0,0,1-.42-.11,17.87,17.87,0,0,0,.61-2.42.47.47,0,0,1,.31,0c.09.52.63.51,1.37.51h6.55c.88,0,1,0,1.27-.46a.32.32,0,0,1,.29.05,10.16,10.16,0,0,0-.25,2.46c-.06.13-.34.13-.41,0-.06-.4-.17-1-.41-1.18a3.28,3.28,0,0,0-1.88-.4h-1.15c-.48,0-.46,0-.46.55Z"></path><path class="cls-9" d="M229.76,38c0,1.7,0,1.94,1,2l.51,0c.1.06.07.35,0,.4-.92,0-1.47,0-2.12,0s-1.21,0-2.25,0a.28.28,0,0,1,0-.4l.59,0c.92-.08,1-.32,1-2V30.78c0-.51,0-.52-.49-.52h-.89a3.3,3.3,0,0,0-2,.4,2.81,2.81,0,0,0-.73,1.12.32.32,0,0,1-.42-.11,17.87,17.87,0,0,0,.61-2.42.47.47,0,0,1,.31,0c.09.52.63.51,1.37.51h6.55c.88,0,1,0,1.27-.46a.32.32,0,0,1,.29.05,10.16,10.16,0,0,0-.25,2.46c-.06.13-.34.13-.41,0-.06-.4-.17-1-.41-1.18a3.28,3.28,0,0,0-1.88-.4h-1.15c-.48,0-.46,0-.46.55Z"></path><path class="cls-8" d="M236.38,32.18c0-1.68,0-1.92-1-2l-.25,0c-.1-.06-.07-.35,0-.4.69,0,1.24.05,1.91.05h3a21,21,0,0,0,2.18-.05,16.53,16.53,0,0,1,.26,2.15.3.3,0,0,1-.4,0c-.25-.76-.39-1.32-1.23-1.53a7.08,7.08,0,0,0-1.57-.1h-1.17c-.48,0-.48,0-.48.65v3.23c0,.46,0,.46.53.46h.94a6.15,6.15,0,0,0,1.37-.1c.2-.07.31-.16.39-.57l.13-.66c.08-.1.36-.1.42,0,0,.39-.06,1-.06,1.64s.06,1.19.06,1.55c-.06.11-.34.11-.42,0l-.14-.63c-.07-.29-.18-.54-.5-.62a5.8,5.8,0,0,0-1.25-.08h-.94c-.48,0-.53,0-.53.44v2.28c0,.86,0,1.41.31,1.68s.53.37,1.95.37a4.68,4.68,0,0,0,2.07-.24,4,4,0,0,0,1.15-1.57.31.31,0,0,1,.41.11,14.49,14.49,0,0,1-.73,2.25c-1.46,0-2.9,0-4.34,0h-1.45c-.7,0-1.25,0-2.2,0a.31.31,0,0,1,0-.4l.54,0c.92-.08,1-.32,1-2Z"></path><path class="cls-9" d="M236.38,32.18c0-1.68,0-1.92-1-2l-.25,0c-.1-.06-.07-.35,0-.4.69,0,1.24.05,1.91.05h3a21,21,0,0,0,2.18-.05,16.53,16.53,0,0,1,.26,2.15.3.3,0,0,1-.4,0c-.25-.76-.39-1.32-1.23-1.53a7.08,7.08,0,0,0-1.57-.1h-1.17c-.48,0-.48,0-.48.65v3.23c0,.46,0,.46.53.46h.94a6.15,6.15,0,0,0,1.37-.1c.2-.07.31-.16.39-.57l.13-.66c.08-.1.36-.1.42,0,0,.39-.06,1-.06,1.64s.06,1.19.06,1.55c-.06.11-.34.11-.42,0l-.14-.63c-.07-.29-.18-.54-.5-.62a5.8,5.8,0,0,0-1.25-.08h-.94c-.48,0-.53,0-.53.44v2.28c0,.86,0,1.41.31,1.68s.53.37,1.95.37a4.68,4.68,0,0,0,2.07-.24,4,4,0,0,0,1.15-1.57.31.31,0,0,1,.41.11,14.49,14.49,0,0,1-.73,2.25c-1.46,0-2.9,0-4.34,0h-1.45c-.7,0-1.25,0-2.2,0a.31.31,0,0,1,0-.4l.54,0c.92-.08,1-.32,1-2Z"></path><path class="cls-8" d="M246.34,30.87a7,7,0,0,1,4.37-1.37,12.49,12.49,0,0,1,2.86.39A1.35,1.35,0,0,0,254,30c0,.37.09,1.39.22,2.38a.33.33,0,0,1-.43,0c-.25-1.1-1-2.36-3.32-2.36s-4.58,1.57-4.58,4.92,2.15,5.27,4.8,5.27a3.47,3.47,0,0,0,3.39-2.31.35.35,0,0,1,.42.06,6.31,6.31,0,0,1-.78,2.22,3.3,3.3,0,0,0-.56.16,9.63,9.63,0,0,1-2.56.37,7.1,7.1,0,0,1-4-1.08,5.23,5.23,0,0,1-2.3-4.45,5.4,5.4,0,0,1,2-4.29"></path><path class="cls-9" d="M246.34,30.87a7,7,0,0,1,4.37-1.37,12.49,12.49,0,0,1,2.86.39A1.35,1.35,0,0,0,254,30c0,.37.09,1.39.22,2.38a.33.33,0,0,1-.43,0c-.25-1.1-1-2.36-3.32-2.36s-4.58,1.57-4.58,4.92,2.15,5.27,4.8,5.27a3.47,3.47,0,0,0,3.39-2.31.35.35,0,0,1,.42.06,6.31,6.31,0,0,1-.78,2.22,3.3,3.3,0,0,0-.56.16,9.63,9.63,0,0,1-2.56.37,7.1,7.1,0,0,1-4-1.08,5.23,5.23,0,0,1-2.3-4.45A5.4,5.4,0,0,1,246.34,30.87Z"></path><path class="cls-8" d="M258.89,35.21c-.78,0-.81,0-.81.51V38c0,1.7.08,1.92,1,2l.47,0c.09.06.06.35,0,.4-.87,0-1.42,0-2.05,0s-1.25,0-1.88,0a.31.31,0,0,1,0-.4l.27,0c.91-.16.94-.32.94-2V32.18c0-1.7-.11-2-.95-2l-.42,0c-.1-.06-.06-.35,0-.4.79,0,1.34.05,2,.05s1.18,0,1.88-.05c.09.05.13.34,0,.4l-.31,0c-.94.1-1,.34-1,2V34c0,.5,0,.52.81.52h4.62c.78,0,.82,0,.82-.52V32.18c0-1.7,0-1.94-1-2l-.31,0c-.1-.06-.07-.35,0-.4.75,0,1.3.05,2,.05s1.18,0,1.91-.05c.1.05.13.34,0,.4l-.34,0c-.94.1-1,.34-1,2V38c0,1.7,0,1.9,1,2l.39,0c.1.06.06.35,0,.4-.78,0-1.33,0-2,0s-1.25,0-2,0a.3.3,0,0,1,0-.4l.31,0c1-.16,1-.32,1-2V35.72c0-.48,0-.51-.82-.51Z"></path><path class="cls-9" d="M258.89,35.21c-.78,0-.81,0-.81.51V38c0,1.7.08,1.92,1,2l.47,0c.09.06.06.35,0,.4-.87,0-1.42,0-2.05,0s-1.25,0-1.88,0a.31.31,0,0,1,0-.4l.27,0c.91-.16.94-.32.94-2V32.18c0-1.7-.11-2-.95-2l-.42,0c-.1-.06-.06-.35,0-.4.79,0,1.34.05,2,.05s1.18,0,1.88-.05c.09.05.13.34,0,.4l-.31,0c-.94.1-1,.34-1,2V34c0,.5,0,.52.81.52h4.62c.78,0,.82,0,.82-.52V32.18c0-1.7,0-1.94-1-2l-.31,0c-.1-.06-.07-.35,0-.4.75,0,1.3.05,2,.05s1.18,0,1.91-.05c.1.05.13.34,0,.4l-.34,0c-.94.1-1,.34-1,2V38c0,1.7,0,1.9,1,2l.39,0c.1.06.06.35,0,.4-.78,0-1.33,0-2,0s-1.25,0-2,0a.3.3,0,0,1,0-.4l.31,0c1-.16,1-.32,1-2V35.72c0-.48,0-.51-.82-.51Z"></path><path class="cls-8" d="M278.33,37.68c0,.49,0,2.41.05,2.83a.3.3,0,0,1-.31.18c-.2-.27-.66-.84-2.07-2.44L272.24,34c-.43-.5-1.53-1.83-1.87-2.19h0a3.86,3.86,0,0,0-.09,1.06v3.52a12.87,12.87,0,0,0,.29,3.35c.1.18.43.28.83.31l.5,0a.29.29,0,0,1,0,.4c-.73,0-1.3,0-1.89,0s-1.12,0-1.69,0a.29.29,0,0,1,0-.4l.44,0c.37-.05.63-.15.71-.32a15.48,15.48,0,0,0,.21-3.34V31.7a1.51,1.51,0,0,0-.36-1.17,1.78,1.78,0,0,0-1-.39l-.27,0c-.1-.1-.1-.35,0-.41.68.05,1.54.05,1.83.05a5.5,5.5,0,0,0,.74-.05,22,22,0,0,0,2.77,3.56L274.9,35c1.11,1.25,1.91,2.15,2.67,2.93h0a1.75,1.75,0,0,0,.06-.68V33.82a11.32,11.32,0,0,0-.32-3.35c-.1-.15-.35-.24-1-.33l-.28,0c-.11-.1-.1-.36,0-.41.75,0,1.3.05,1.91.05s1.12,0,1.67-.05a.29.29,0,0,1,0,.41l-.22,0c-.52.09-.85.22-.91.35a12.79,12.79,0,0,0-.24,3.33Z"></path><path class="cls-9" d="M278.33,37.68c0,.49,0,2.41.05,2.83a.3.3,0,0,1-.31.18c-.2-.27-.66-.84-2.07-2.44L272.24,34c-.43-.5-1.53-1.83-1.87-2.19h0a3.86,3.86,0,0,0-.09,1.06v3.52a12.87,12.87,0,0,0,.29,3.35c.1.18.43.28.83.31l.5,0a.29.29,0,0,1,0,.4c-.73,0-1.3,0-1.89,0s-1.12,0-1.69,0a.29.29,0,0,1,0-.4l.44,0c.37-.05.63-.15.71-.32a15.48,15.48,0,0,0,.21-3.34V31.7a1.51,1.51,0,0,0-.36-1.17,1.78,1.78,0,0,0-1-.39l-.27,0c-.1-.1-.1-.35,0-.41.68.05,1.54.05,1.83.05a5.5,5.5,0,0,0,.74-.05,22,22,0,0,0,2.77,3.56L274.9,35c1.11,1.25,1.91,2.15,2.67,2.93h0a1.75,1.75,0,0,0,.06-.68V33.82a11.32,11.32,0,0,0-.32-3.35c-.1-.15-.35-.24-1-.33l-.28,0c-.11-.1-.1-.36,0-.41.75,0,1.3.05,1.91.05s1.12,0,1.67-.05a.29.29,0,0,1,0,.41l-.22,0c-.52.09-.85.22-.91.35a12.79,12.79,0,0,0-.24,3.33Z"></path><path class="cls-8" d="M280.79,35.21a5.59,5.59,0,0,1,5.76-5.71,5.33,5.33,0,0,1,5.62,5.55,5.52,5.52,0,0,1-5.62,5.64,5.45,5.45,0,0,1-5.76-5.48m9.76.34c0-2.67-1.18-5.55-4.27-5.55-1.69,0-3.87,1.15-3.87,4.69,0,2.39,1.17,5.5,4.35,5.5,1.94,0,3.79-1.45,3.79-4.64"></path><path class="cls-9" d="M280.79,35.21a5.59,5.59,0,0,1,5.76-5.71,5.33,5.33,0,0,1,5.62,5.55,5.52,5.52,0,0,1-5.62,5.64A5.45,5.45,0,0,1,280.79,35.21Zm9.76.34c0-2.67-1.18-5.55-4.27-5.55-1.69,0-3.87,1.15-3.87,4.69,0,2.39,1.17,5.5,4.35,5.5C288.7,40.19,290.55,38.74,290.55,35.55Z"></path><path class="cls-8" d="M294.81,32.18c0-1.7,0-1.95-1.05-2l-.4,0c-.1-.06-.07-.35,0-.4.91,0,1.46.05,2.1.05s1.18,0,2-.05c.1.05.13.34,0,.4l-.4,0c-.95.09-1,.34-1,2v5.63c0,1,.05,1.44.34,1.75s.48.37,1.76.37,1.72-.06,2-.21a3.39,3.39,0,0,0,1.06-1.6c.1-.08.41,0,.41.1a12.67,12.67,0,0,1-.68,2.26c-.83,0-2.36,0-4,0h-1.49c-.68,0-1.19,0-2.1,0a.3.3,0,0,1,0-.4l.48,0c.94-.1,1-.32,1-2Z"></path><path class="cls-9" d="M294.81,32.18c0-1.7,0-1.95-1.05-2l-.4,0c-.1-.06-.07-.35,0-.4.91,0,1.46.05,2.1.05s1.18,0,2-.05c.1.05.13.34,0,.4l-.4,0c-.95.09-1,.34-1,2v5.63c0,1,.05,1.44.34,1.75s.48.37,1.76.37,1.72-.06,2-.21a3.39,3.39,0,0,0,1.06-1.6c.1-.08.41,0,.41.1a12.67,12.67,0,0,1-.68,2.26c-.83,0-2.36,0-4,0h-1.49c-.68,0-1.19,0-2.1,0a.3.3,0,0,1,0-.4l.48,0c.94-.1,1-.32,1-2Z"></path><path class="cls-8" d="M302.26,35.21A5.59,5.59,0,0,1,308,29.5a5.33,5.33,0,0,1,5.62,5.55A5.52,5.52,0,0,1,308,40.69a5.45,5.45,0,0,1-5.76-5.48m9.76.34c0-2.67-1.18-5.55-4.27-5.55-1.68,0-3.87,1.15-3.87,4.69,0,2.39,1.17,5.5,4.36,5.5,1.94,0,3.78-1.45,3.78-4.64"></path><path class="cls-9" d="M302.26,35.21A5.59,5.59,0,0,1,308,29.5a5.33,5.33,0,0,1,5.62,5.55A5.52,5.52,0,0,1,308,40.69,5.45,5.45,0,0,1,302.26,35.21Zm9.76.34c0-2.67-1.18-5.55-4.27-5.55-1.68,0-3.87,1.15-3.87,4.69,0,2.39,1.17,5.5,4.36,5.5C310.18,40.19,312,38.74,312,35.55Z"></path><path class="cls-8" d="M324.7,38.78c0,.65.09,1,.38,1.15a.13.13,0,0,1,0,.19,3.75,3.75,0,0,0-.8.15,12.38,12.38,0,0,1-2.89.42,6.72,6.72,0,0,1-4.93-1.79A5.1,5.1,0,0,1,315,35.22a5.56,5.56,0,0,1,1.45-3.83,6.72,6.72,0,0,1,5.13-1.89,10.2,10.2,0,0,1,2.06.24,4.58,4.58,0,0,0,1,.15,19.16,19.16,0,0,0,.24,2.34c0,.13-.34.15-.44.05-.45-1.75-1.66-2.3-3.31-2.3-3.14,0-4.52,2.24-4.52,4.66,0,3.11,1.61,5.55,4.86,5.55,1,0,1.6-.21,1.78-.48a1.87,1.87,0,0,0,.16-.93v-.64c0-1.36-.05-1.46-1.05-1.57l-.71-.08c-.13-.07-.12-.36,0-.41.46,0,1.35.05,2.31.05.63,0,1.18,0,1.71-.05a.29.29,0,0,1,0,.41l-.26,0c-.68.08-.69.53-.69,1.36Z"></path><path class="cls-9" d="M324.7,38.78c0,.65.09,1,.38,1.15a.13.13,0,0,1,0,.19,3.75,3.75,0,0,0-.8.15,12.38,12.38,0,0,1-2.89.42,6.72,6.72,0,0,1-4.93-1.79A5.1,5.1,0,0,1,315,35.22a5.56,5.56,0,0,1,1.45-3.83,6.72,6.72,0,0,1,5.13-1.89,10.2,10.2,0,0,1,2.06.24,4.58,4.58,0,0,0,1,.15,19.16,19.16,0,0,0,.24,2.34c0,.13-.34.15-.44.05-.45-1.75-1.66-2.3-3.31-2.3-3.14,0-4.52,2.24-4.52,4.66,0,3.11,1.61,5.55,4.86,5.55,1,0,1.6-.21,1.78-.48a1.87,1.87,0,0,0,.16-.93v-.64c0-1.36-.05-1.46-1.05-1.57l-.71-.08c-.13-.07-.12-.36,0-.41.46,0,1.35.05,2.31.05.63,0,1.18,0,1.71-.05a.29.29,0,0,1,0,.41l-.26,0c-.68.08-.69.53-.69,1.36Z"></path><path class="cls-8" d="M331.56,38c0,1.73.1,2,1,2.05l.62,0a.31.31,0,0,1,0,.4c-1,0-1.56,0-2.2,0s-1.26,0-2.12,0a.3.3,0,0,1,0-.4l.5,0c.93-.1,1-.32,1-2.05v-.83a3.27,3.27,0,0,0-.52-2l-1.91-3.72c-.55-1.06-.79-1.15-1.28-1.23l-.45-.08a.29.29,0,0,1,0-.4c.52,0,1.1,0,1.88,0s1.32,0,1.73,0c.15,0,.15.3,0,.4l-.21,0c-.57.08-.68.16-.68.29a8,8,0,0,0,.5,1.24c.6,1.2,1.2,2.48,1.83,3.59.5-.86,1-1.79,1.52-2.73a14.62,14.62,0,0,0,1-2.14c0-.09-.29-.21-.68-.25l-.29,0a.27.27,0,0,1,0-.4c.59,0,1.05,0,1.56,0s1,0,1.5,0a.26.26,0,0,1,0,.4l-.45.08c-.84.15-1.33,1.17-2.13,2.56l-1,1.76a3.74,3.74,0,0,0-.76,2.62Z"></path><path class="cls-9" d="M331.56,38c0,1.73.1,2,1,2.05l.62,0a.31.31,0,0,1,0,.4c-1,0-1.56,0-2.2,0s-1.26,0-2.12,0a.3.3,0,0,1,0-.4l.5,0c.93-.1,1-.32,1-2.05v-.83a3.27,3.27,0,0,0-.52-2l-1.91-3.72c-.55-1.06-.79-1.15-1.28-1.23l-.45-.08a.29.29,0,0,1,0-.4c.52,0,1.1,0,1.88,0s1.32,0,1.73,0c.15,0,.15.3,0,.4l-.21,0c-.57.08-.68.16-.68.29a8,8,0,0,0,.5,1.24c.6,1.2,1.2,2.48,1.83,3.59.5-.86,1-1.79,1.52-2.73a14.62,14.62,0,0,0,1-2.14c0-.09-.29-.21-.68-.25l-.29,0a.27.27,0,0,1,0-.4c.59,0,1.05,0,1.56,0s1,0,1.5,0a.26.26,0,0,1,0,.4l-.45.08c-.84.15-1.33,1.17-2.13,2.56l-1,1.76a3.74,3.74,0,0,0-.76,2.62Z"></path><path class="cls-8" d="M227.36,62a4.88,4.88,0,0,1-2.48-.59,7.49,7.49,0,0,1-.43-2.21c.08-.12.32-.15.39,0a2.87,2.87,0,0,0,2.72,2.36,1.8,1.8,0,0,0,2-1.83,2.37,2.37,0,0,0-1.3-2.21l-1.5-1A3.36,3.36,0,0,1,225,53.72c0-1.51,1.18-2.73,3.24-2.73a6.13,6.13,0,0,1,1.47.21,2.28,2.28,0,0,0,.56.09,7.08,7.08,0,0,1,.28,1.94c-.06.09-.31.14-.39,0A2.09,2.09,0,0,0,228,51.48a1.66,1.66,0,0,0-1.88,1.76,2.49,2.49,0,0,0,1.34,1.95l1.27.79a3.57,3.57,0,0,1,2,3.05c0,1.74-1.32,2.93-3.37,2.93"></path><path class="cls-9" d="M227.36,62a4.88,4.88,0,0,1-2.48-.59,7.49,7.49,0,0,1-.43-2.21c.08-.12.32-.15.39,0a2.87,2.87,0,0,0,2.72,2.36,1.8,1.8,0,0,0,2-1.83,2.37,2.37,0,0,0-1.3-2.21l-1.5-1A3.36,3.36,0,0,1,225,53.72c0-1.51,1.18-2.73,3.24-2.73a6.13,6.13,0,0,1,1.47.21,2.28,2.28,0,0,0,.56.09,7.08,7.08,0,0,1,.28,1.94c-.06.09-.31.14-.39,0A2.09,2.09,0,0,0,228,51.48a1.66,1.66,0,0,0-1.88,1.76,2.49,2.49,0,0,0,1.34,1.95l1.27.79a3.57,3.57,0,0,1,2,3.05C230.73,60.77,229.41,62,227.36,62Z"></path><path class="cls-8" d="M234.09,52.34A6.84,6.84,0,0,1,238.37,51a12.53,12.53,0,0,1,2.8.38,1.3,1.3,0,0,0,.45.07c0,.36.09,1.36.22,2.33a.34.34,0,0,1-.43,0c-.24-1.08-.95-2.32-3.25-2.32s-4.49,1.54-4.49,4.82,2.11,5.17,4.71,5.17a3.39,3.39,0,0,0,3.32-2.27.36.36,0,0,1,.41.06,6.09,6.09,0,0,1-.76,2.18,2.58,2.58,0,0,0-.56.16,9.68,9.68,0,0,1-2.5.36,7,7,0,0,1-3.95-1.06,5.11,5.11,0,0,1-2.25-4.36,5.24,5.24,0,0,1,2-4.2"></path><path class="cls-9" d="M234.09,52.34A6.84,6.84,0,0,1,238.37,51a12.53,12.53,0,0,1,2.8.38,1.3,1.3,0,0,0,.45.07c0,.36.09,1.36.22,2.33a.34.34,0,0,1-.43,0c-.24-1.08-.95-2.32-3.25-2.32s-4.49,1.54-4.49,4.82,2.11,5.17,4.71,5.17a3.39,3.39,0,0,0,3.32-2.27.36.36,0,0,1,.41.06,6.09,6.09,0,0,1-.76,2.18,2.58,2.58,0,0,0-.56.16,9.68,9.68,0,0,1-2.5.36,7,7,0,0,1-3.95-1.06,5.11,5.11,0,0,1-2.25-4.36A5.24,5.24,0,0,1,234.09,52.34Z"></path><path class="cls-8" d="M246.38,56.59c-.76,0-.79,0-.79.5v2.24c0,1.66.08,1.89,1,2l.46,0c.09.06.06.35,0,.39-.85,0-1.39,0-2,0s-1.22,0-1.84,0a.3.3,0,0,1,0-.39l.27,0c.89-.16.92-.32.92-2V53.62c0-1.66-.11-1.93-.94-2l-.41,0c-.09-.06-.06-.35,0-.39.77,0,1.31,0,2,0s1.16,0,1.84,0c.1,0,.13.33,0,.39l-.3,0c-.92.09-.95.33-.95,2v1.82c0,.5,0,.51.79.51h4.53c.77,0,.8,0,.8-.51V53.62c0-1.66,0-1.9-1-2l-.3,0c-.1-.06-.06-.35,0-.39.73,0,1.27,0,1.92,0s1.15,0,1.87,0c.09,0,.13.33,0,.39l-.33,0c-.92.09-1,.33-1,2v5.71c0,1.66,0,1.87,1,2l.38,0c.09.06.06.35,0,.39-.77,0-1.3,0-1.92,0s-1.22,0-1.92,0a.3.3,0,0,1,0-.39l.3,0c1-.16,1-.32,1-2V57.09c0-.47,0-.5-.8-.5Z"></path><path class="cls-9" d="M246.38,56.59c-.76,0-.79,0-.79.5v2.24c0,1.66.08,1.89,1,2l.46,0c.09.06.06.35,0,.39-.85,0-1.39,0-2,0s-1.22,0-1.84,0a.3.3,0,0,1,0-.39l.27,0c.89-.16.92-.32.92-2V53.62c0-1.66-.11-1.93-.94-2l-.41,0c-.09-.06-.06-.35,0-.39.77,0,1.31,0,2,0s1.16,0,1.84,0c.1,0,.13.33,0,.39l-.3,0c-.92.09-.95.33-.95,2v1.82c0,.5,0,.51.79.51h4.53c.77,0,.8,0,.8-.51V53.62c0-1.66,0-1.9-1-2l-.3,0c-.1-.06-.06-.35,0-.39.73,0,1.27,0,1.92,0s1.15,0,1.87,0c.09,0,.13.33,0,.39l-.33,0c-.92.09-1,.33-1,2v5.71c0,1.66,0,1.87,1,2l.38,0c.09.06.06.35,0,.39-.77,0-1.3,0-1.92,0s-1.22,0-1.92,0a.3.3,0,0,1,0-.39l.3,0c1-.16,1-.32,1-2V57.09c0-.47,0-.5-.8-.5Z"></path><path class="cls-8" d="M255.6,56.59a5.48,5.48,0,0,1,5.64-5.6,5.22,5.22,0,0,1,5.5,5.44,5.41,5.41,0,0,1-5.5,5.53,5.34,5.34,0,0,1-5.64-5.37m9.56.33c0-2.61-1.16-5.44-4.19-5.44-1.65,0-3.79,1.13-3.79,4.6,0,2.35,1.15,5.39,4.27,5.39,1.9,0,3.71-1.43,3.71-4.55"></path><path class="cls-9" d="M255.6,56.59a5.48,5.48,0,0,1,5.64-5.6,5.22,5.22,0,0,1,5.5,5.44,5.41,5.41,0,0,1-5.5,5.53A5.34,5.34,0,0,1,255.6,56.59Zm9.56.33c0-2.61-1.16-5.44-4.19-5.44-1.65,0-3.79,1.13-3.79,4.6,0,2.35,1.15,5.39,4.27,5.39C263.35,61.47,265.16,60,265.16,56.92Z"></path><path class="cls-8" d="M268,56.59a5.49,5.49,0,0,1,5.65-5.6,5.22,5.22,0,0,1,5.5,5.44,5.41,5.41,0,0,1-5.5,5.53A5.34,5.34,0,0,1,268,56.59m9.56.33c0-2.61-1.16-5.44-4.18-5.44-1.65,0-3.79,1.13-3.79,4.6,0,2.35,1.14,5.39,4.26,5.39,1.9,0,3.71-1.43,3.71-4.55"></path><path class="cls-9" d="M268,56.59a5.49,5.49,0,0,1,5.65-5.6,5.22,5.22,0,0,1,5.5,5.44,5.41,5.41,0,0,1-5.5,5.53A5.34,5.34,0,0,1,268,56.59Zm9.56.33c0-2.61-1.16-5.44-4.18-5.44-1.65,0-3.79,1.13-3.79,4.6,0,2.35,1.14,5.39,4.26,5.39C275.78,61.47,277.59,60,277.59,56.92Z"></path><path class="cls-8" d="M281.77,53.62c0-1.66,0-1.91-1-2l-.4,0c-.09-.07-.06-.36,0-.4.88,0,1.42,0,2.06,0s1.15,0,1.94,0c.1,0,.13.33,0,.4l-.38,0c-.94.08-1,.33-1,2v5.52c0,1,.05,1.41.33,1.71s.48.37,1.73.37,1.68-.07,1.93-.21a3.38,3.38,0,0,0,1.05-1.57c.09-.08.39,0,.39.1a12.64,12.64,0,0,1-.66,2.21c-.81,0-2.31,0-3.95,0h-1.45c-.67,0-1.18,0-2.06,0-.1,0-.13-.3,0-.39l.48,0c.92-.09.95-.32.95-2Z"></path><path class="cls-9" d="M281.77,53.62c0-1.66,0-1.91-1-2l-.4,0c-.09-.07-.06-.36,0-.4.88,0,1.42,0,2.06,0s1.15,0,1.94,0c.1,0,.13.33,0,.4l-.38,0c-.94.08-1,.33-1,2v5.52c0,1,.05,1.41.33,1.71s.48.37,1.73.37,1.68-.07,1.93-.21a3.38,3.38,0,0,0,1.05-1.57c.09-.08.39,0,.39.1a12.64,12.64,0,0,1-.66,2.21c-.81,0-2.31,0-3.95,0h-1.45c-.67,0-1.18,0-2.06,0-.1,0-.13-.3,0-.39l.48,0c.92-.09.95-.32.95-2Z"></path><line class="cls-10" x1="125.32" y1="71.78" x2="335.97" y2="71.78"></line><path class="cls-8" d="M137.18,19.49V48.71q0,5.46.66,7.22a6.06,6.06,0,0,0,1.94,2.81,8.22,8.22,0,0,0,3.6,1.17q2,.27,2,1c0,.6-.41.91-1.21.91a10.33,10.33,0,0,1-1.49-.13,34.5,34.5,0,0,0-4.12-.17l-5.65-.09-4.6.28c-.76.07-1.38.11-1.87.11-.7,0-1-.27-1-.8s.4-.75,1.21-.87c2-.34,3.24-1,3.81-2s.86-3.19.86-6.5V18.16q0-4.85-1.11-6.52t-4.73-2.26c-.81-.15-1.22-.46-1.25-.92s.35-.83,1.13-.83a6,6,0,0,1,.7,0,65.57,65.57,0,0,0,7.56.35c1.92,0,3.57,0,4.95-.14l2.61-.21,1,0c.7,0,1.06.24,1.06.72s-.34.8-1,1l-2,.78q-2.9,1.1-2.89,9.33"></path><path class="cls-11" d="M195.4,10.13h.4a17.24,17.24,0,0,1,9.45,2.7,12.91,12.91,0,0,1,5.61,6.87c.42,1.23.84,1.85,1.26,1.85s.82-.4.82-1.19a14.53,14.53,0,0,0-.19-1.58l-.62-4c-.33-2.15-.5-3.45-.5-3.89,0-1.28-.32-1.9-1-1.88a.5.5,0,0,0-.42.15l-.54.47a1.49,1.49,0,0,1-.92.38,1.8,1.8,0,0,1-.7-.15l-2.65-1.12a18.1,18.1,0,0,0-7-1.19,24.07,24.07,0,0,0-3.36.23,6.92,6.92,0,0,1,.28,2.32"></path><path class="cls-11" d="M200.5,30.52a92.82,92.82,0,0,1-9.16-3.35,10.31,10.31,0,0,1-3.44-2.92,8.93,8.93,0,0,1-1.8-5.59,7.78,7.78,0,0,1,2.78-6.1,9.85,9.85,0,0,1,1.74-1.21,15.15,15.15,0,0,0-2.65-.2h-1c-.15.12-.3.22-.45.35a12.65,12.65,0,0,0-4.63,10.14,12.15,12.15,0,0,0,3.55,9.07q3.56,3.49,12.08,6.38,8.25,2.77,10,4.28a9.15,9.15,0,0,1,3.38,7.19,9.62,9.62,0,0,1-3.66,7.59,13.36,13.36,0,0,1-9,3.11A16.1,16.1,0,0,1,188.62,56a14.9,14.9,0,0,1-5.83-8c-.36-1.23-.78-1.86-1.25-1.89s-.78.35-.78,1.12a21,21,0,0,0,1,4.92c.59,2.13.92,3.29,1,3.5a17.23,17.23,0,0,0,.69,2.67,2.4,2.4,0,0,0,.92,1,16.27,16.27,0,0,0,5.21,2,28.08,28.08,0,0,0,6.52.85q8.19,0,13.42-4.57a14.92,14.92,0,0,0,5.23-11.76q0-10.61-14.21-15.26"></path><path class="cls-8" d="M186.44,11.77h-11c-1.16,0-1.88.15-2.18.47a3.76,3.76,0,0,0-.45,2.32v38.5l0,1.53c.14,3.07,1.85,4.89,5.15,5.47.91.15,1.37.44,1.37.88s-.37.84-1.1.84a13.33,13.33,0,0,1-1.93-.24,34.21,34.21,0,0,0-3.54-.11l-2.87,0-3.06,0c-1.1,0-2,0-2.79.11-1.5.17-2.38.24-2.64.24q-1.17,0-1.17-.84c0-.41.42-.66,1.29-.76,2-.27,3.37-.82,4.08-1.67s1.06-2.38,1.06-4.58V15l0-1a2.66,2.66,0,0,0-.41-1.8,3,3,0,0,0-1.91-.39H153.92c-2.12,0-3.66.42-4.61,1.27s-1.7,2.45-2.22,4.81c-.23,1-.59,1.51-1.06,1.49s-.7-.38-.7-1.06a16.68,16.68,0,0,1,.47-3,23.73,23.73,0,0,0,.58-4.65,4.44,4.44,0,0,1,.42-2.37c.27-.38.86-.56,1.74-.56h42.25c1.44,0,2.31.15,2.61.46s.45,1.24.45,2.78a20.42,20.42,0,0,0,.2,3.36c.13.89.21,1.52.23,1.91,0,.78-.24,1.2-.82,1.25s-.78-.38-.94-1.21q-.51-2.79-1.65-3.63c-.76-.57-2.24-.84-4.43-.84"></path><line class="cls-10" x1="125.32" y1="92.31" x2="335.97" y2="92.31"></line><path class="cls-8" d="M126.15,80.94c-.19-.46-.32-.64-.67-.68h-.15a.14.14,0,0,1,0-.21c.23,0,.5,0,.85,0s.66,0,1,0a.15.15,0,0,1,0,.21h-.13c-.31,0-.38.09-.38.16a8,8,0,0,0,.41,1.15c.38,1,.76,1.91,1.17,2.84.25-.54.6-1.39.79-1.83s.62-1.48.76-1.84a.82.82,0,0,0,.08-.32c0-.06-.09-.13-.37-.16h-.15a.15.15,0,0,1,0-.21c.24,0,.55,0,.86,0s.53,0,.8,0c.06,0,.06.16,0,.21h-.25a.55.55,0,0,0-.43.29,20.62,20.62,0,0,0-.92,1.9l-.44,1c-.34.75-.72,1.71-.86,2.15l-.09,0-.13,0a9.48,9.48,0,0,0-.37-1.1Z"></path><path class="cls-9" d="M126.15,80.94c-.19-.46-.32-.64-.67-.68h-.15a.14.14,0,0,1,0-.21c.23,0,.5,0,.85,0s.66,0,1,0a.15.15,0,0,1,0,.21h-.13c-.31,0-.38.09-.38.16a8,8,0,0,0,.41,1.15c.38,1,.76,1.91,1.17,2.84.25-.54.6-1.39.79-1.83s.62-1.48.76-1.84a.82.82,0,0,0,.08-.32c0-.06-.09-.13-.37-.16h-.15a.15.15,0,0,1,0-.21c.24,0,.55,0,.86,0s.53,0,.8,0c.06,0,.06.16,0,.21h-.25a.55.55,0,0,0-.43.29,20.62,20.62,0,0,0-.92,1.9l-.44,1c-.34.75-.72,1.71-.86,2.15l-.09,0-.13,0a9.48,9.48,0,0,0-.37-1.1Z"></path><path class="cls-8" d="M133,81.32c0-.88,0-1-.5-1.06h-.21a.18.18,0,0,1,0-.21c.41,0,.69,0,1,0l1,0a.18.18,0,0,1,0,.21h-.21c-.49,0-.5.18-.5,1.06v2.93c0,.87,0,1,.5,1l.21,0s0,.18,0,.2l-1,0-1,0s-.06-.15,0-.2l.21,0c.49-.05.5-.17.5-1Z"></path><path class="cls-9" d="M133,81.32c0-.88,0-1-.5-1.06h-.21a.18.18,0,0,1,0-.21c.41,0,.69,0,1,0l1,0a.18.18,0,0,1,0,.21h-.21c-.49,0-.5.18-.5,1.06v2.93c0,.87,0,1,.5,1l.21,0s0,.18,0,.2l-1,0-1,0s-.06-.15,0-.2l.21,0c.49-.05.5-.17.5-1Z"></path><path class="cls-8" d="M137.66,85.63a2.6,2.6,0,0,1-1.29-.3,3.91,3.91,0,0,1-.22-1.16s.16-.07.2,0a1.49,1.49,0,0,0,1.41,1.23.94.94,0,0,0,1-.95,1.23,1.23,0,0,0-.67-1.15l-.78-.51a1.74,1.74,0,0,1-.89-1.42,1.48,1.48,0,0,1,1.68-1.42,3,3,0,0,1,.76.11,1.26,1.26,0,0,0,.29,0,3.79,3.79,0,0,1,.15,1,.17.17,0,0,1-.21,0,1.07,1.07,0,0,0-1.12-.93.86.86,0,0,0-1,.91,1.32,1.32,0,0,0,.7,1l.66.41a1.85,1.85,0,0,1,1,1.58,1.55,1.55,0,0,1-1.75,1.52"></path><path class="cls-9" d="M137.66,85.63a2.6,2.6,0,0,1-1.29-.3,3.91,3.91,0,0,1-.22-1.16s.16-.07.2,0a1.49,1.49,0,0,0,1.41,1.23.94.94,0,0,0,1-.95,1.23,1.23,0,0,0-.67-1.15l-.78-.51a1.74,1.74,0,0,1-.89-1.42,1.48,1.48,0,0,1,1.68-1.42,3,3,0,0,1,.76.11,1.26,1.26,0,0,0,.29,0,3.79,3.79,0,0,1,.15,1,.17.17,0,0,1-.21,0,1.07,1.07,0,0,0-1.12-.93.86.86,0,0,0-1,.91,1.32,1.32,0,0,0,.7,1l.66.41a1.85,1.85,0,0,1,1,1.58A1.55,1.55,0,0,1,137.66,85.63Z"></path><path class="cls-8" d="M141.29,82.84a2.84,2.84,0,0,1,2.93-2.91,2.72,2.72,0,0,1,2.86,2.83,2.81,2.81,0,0,1-2.86,2.87,2.77,2.77,0,0,1-2.93-2.79m5,.17c0-1.36-.6-2.82-2.17-2.82-.86,0-2,.58-2,2.39,0,1.22.59,2.79,2.22,2.79,1,0,1.92-.73,1.92-2.36"></path><path class="cls-9" d="M141.29,82.84a2.84,2.84,0,0,1,2.93-2.91,2.72,2.72,0,0,1,2.86,2.83,2.81,2.81,0,0,1-2.86,2.87A2.77,2.77,0,0,1,141.29,82.84Zm5,.17c0-1.36-.6-2.82-2.17-2.82-.86,0-2,.58-2,2.39,0,1.22.59,2.79,2.22,2.79C145.32,85.37,146.25,84.64,146.25,83Z"></path><path class="cls-8" d="M149.58,81.3c0-.86,0-1-.5-1h-.2a.17.17,0,0,1,0-.21c.41,0,.67,0,1,0l1,0a.17.17,0,0,1,0,.21h-.15c-.48,0-.5.18-.5,1v1c0,.16,0,.31.11.31a.5.5,0,0,0,.23-.09l.42-.4.89-.88a7.69,7.69,0,0,0,.64-.68.28.28,0,0,0,.06-.13s0-.06-.14-.09l-.22,0a.14.14,0,0,1,0-.21c.29,0,.62,0,.91,0s.57,0,.82,0a.17.17,0,0,1,0,.21,1.94,1.94,0,0,0-.76.23,7.84,7.84,0,0,0-1.16,1l-.74.7c-.11.12-.19.19-.19.26s.05.12.16.25c.78.9,1.41,1.64,2.06,2.32a1,1,0,0,0,.66.33l.22,0a.13.13,0,0,1,0,.2l-.92,0-1,0c-.06,0-.09-.15,0-.2l.19,0c.12,0,.2,0,.2-.08s-.06-.11-.12-.19-.37-.42-.68-.77l-.66-.74c-.47-.53-.6-.69-.8-.69s-.14.1-.14.39v1.06c0,.87,0,1,.48,1l.22,0c.05,0,0,.18,0,.2l-1,0-1,0s-.07-.15,0-.2l.16,0c.44-.06.46-.16.46-1Z"></path><path class="cls-9" d="M149.58,81.3c0-.86,0-1-.5-1h-.2a.17.17,0,0,1,0-.21c.41,0,.67,0,1,0l1,0a.17.17,0,0,1,0,.21h-.15c-.48,0-.5.18-.5,1v1c0,.16,0,.31.11.31a.5.5,0,0,0,.23-.09l.42-.4.89-.88a7.69,7.69,0,0,0,.64-.68.28.28,0,0,0,.06-.13s0-.06-.14-.09l-.22,0a.14.14,0,0,1,0-.21c.29,0,.62,0,.91,0s.57,0,.82,0a.17.17,0,0,1,0,.21,1.94,1.94,0,0,0-.76.23,7.84,7.84,0,0,0-1.16,1l-.74.7c-.11.12-.19.19-.19.26s.05.12.16.25c.78.9,1.41,1.64,2.06,2.32a1,1,0,0,0,.66.33l.22,0a.13.13,0,0,1,0,.2l-.92,0-1,0c-.06,0-.09-.15,0-.2l.19,0c.12,0,.2,0,.2-.08s-.06-.11-.12-.19-.37-.42-.68-.77l-.66-.74c-.47-.53-.6-.69-.8-.69s-.14.1-.14.39v1.06c0,.87,0,1,.48,1l.22,0c.05,0,0,.18,0,.2l-1,0-1,0s-.07-.15,0-.2l.16,0c.44-.06.46-.16.46-1Z"></path><path class="cls-8" d="M158.5,83.59c-.06-.18-.09-.21-.34-.21h-1.24c-.2,0-.26,0-.31.2l-.29.87a3.34,3.34,0,0,0-.18.68c0,.1,0,.15.24.16l.27,0a.12.12,0,0,1,0,.2l-.85,0-.79,0a.15.15,0,0,1,0-.2l.27,0a.52.52,0,0,0,.49-.4c.15-.38.38-.91.73-1.83l.84-2.23a1.18,1.18,0,0,0,.14-.58.92.92,0,0,0,.43-.32A.12.12,0,0,1,158,80c.11.36.24.74.36,1.1l1.13,3.31c.24.71.35.83.7.87l.22,0a.14.14,0,0,1,0,.2l-1,0-.95,0a.14.14,0,0,1,0-.2l.25,0c.17,0,.28-.06.28-.14a1.92,1.92,0,0,0-.1-.44Zm-1.63-.73c-.06.19-.06.2.18.2h1c.24,0,.25,0,.18-.26l-.45-1.34a2.94,2.94,0,0,0-.19-.52h0a3.81,3.81,0,0,0-.2.48Z"></path><path class="cls-9" d="M158.5,83.59c-.06-.18-.09-.21-.34-.21h-1.24c-.2,0-.26,0-.31.2l-.29.87a3.34,3.34,0,0,0-.18.68c0,.1,0,.15.24.16l.27,0a.12.12,0,0,1,0,.2l-.85,0-.79,0a.15.15,0,0,1,0-.2l.27,0a.52.52,0,0,0,.49-.4c.15-.38.38-.91.73-1.83l.84-2.23a1.18,1.18,0,0,0,.14-.58.92.92,0,0,0,.43-.32A.12.12,0,0,1,158,80c.11.36.24.74.36,1.1l1.13,3.31c.24.71.35.83.7.87l.22,0a.14.14,0,0,1,0,.2l-1,0-.95,0a.14.14,0,0,1,0-.2l.25,0c.17,0,.28-.06.28-.14a1.92,1.92,0,0,0-.1-.44Zm-1.63-.73c-.06.19-.06.2.18.2h1c.24,0,.25,0,.18-.26l-.45-1.34a2.94,2.94,0,0,0-.19-.52h0a3.81,3.81,0,0,0-.2.48Z"></path><path class="cls-8" d="M166.32,85.63a2.55,2.55,0,0,1-1.28-.3,3.61,3.61,0,0,1-.22-1.16s.16-.07.19,0a1.51,1.51,0,0,0,1.42,1.22.93.93,0,0,0,1-.94,1.22,1.22,0,0,0-.68-1.15l-.78-.51a1.76,1.76,0,0,1-.89-1.42,1.49,1.49,0,0,1,1.68-1.42,3,3,0,0,1,.77.11,1.26,1.26,0,0,0,.29,0,3.79,3.79,0,0,1,.15,1s-.17.07-.21,0a1.08,1.08,0,0,0-1.12-.93.86.86,0,0,0-1,.91,1.32,1.32,0,0,0,.7,1l.66.41a1.85,1.85,0,0,1,1,1.58,1.55,1.55,0,0,1-1.76,1.52m-.89-7c0-.07,0-.16.11-.16l.94.48a.23.23,0,0,0,.26,0l1-.48c.05,0,.09.09.09.16l-1,.93a.22.22,0,0,1-.34,0Z"></path><path class="cls-9" d="M166.32,85.63a2.55,2.55,0,0,1-1.28-.3,3.61,3.61,0,0,1-.22-1.16s.16-.07.19,0a1.51,1.51,0,0,0,1.42,1.22.93.93,0,0,0,1-.94,1.22,1.22,0,0,0-.68-1.15l-.78-.51a1.76,1.76,0,0,1-.89-1.42,1.49,1.49,0,0,1,1.68-1.42,3,3,0,0,1,.77.11,1.26,1.26,0,0,0,.29,0,3.79,3.79,0,0,1,.15,1s-.17.07-.21,0a1.08,1.08,0,0,0-1.12-.93.86.86,0,0,0-1,.91,1.32,1.32,0,0,0,.7,1l.66.41a1.85,1.85,0,0,1,1,1.58A1.55,1.55,0,0,1,166.32,85.63Zm-.89-7c0-.07,0-.16.11-.16l.94.48a.23.23,0,0,0,.26,0l1-.48c.05,0,.09.09.09.16l-1,.93a.22.22,0,0,1-.34,0Z"></path><path class="cls-8" d="M170.63,81.3c0-.86,0-1-.49-1h-.21a.17.17,0,0,1,0-.21c.41,0,.67,0,1,0l1,0a.17.17,0,0,1,0,.21h-.16c-.48,0-.5.18-.5,1v1c0,.16,0,.31.11.31a.5.5,0,0,0,.23-.09c.12-.1.33-.31.42-.4l.89-.88a7.69,7.69,0,0,0,.64-.68.28.28,0,0,0,.06-.13s0-.06-.14-.09l-.22,0a.14.14,0,0,1,0-.21c.28,0,.61,0,.9,0s.57,0,.82,0a.15.15,0,0,1,0,.21,1.94,1.94,0,0,0-.76.23,8.46,8.46,0,0,0-1.15,1l-.75.7c-.11.12-.19.19-.19.26s.05.12.16.25c.78.9,1.42,1.64,2.06,2.32a1,1,0,0,0,.66.33l.22,0a.14.14,0,0,1,0,.2l-.93,0-1,0c-.06,0-.09-.15,0-.2l.19,0c.12,0,.2,0,.2-.08s-.06-.11-.11-.19-.37-.42-.69-.77l-.66-.74c-.47-.53-.6-.69-.8-.69s-.14.1-.14.39v1.06c0,.87,0,1,.48,1l.23,0s0,.18,0,.2l-1,0-.95,0c-.05,0-.07-.15,0-.2l.17,0c.43-.06.45-.16.45-1Z"></path><path class="cls-9" d="M170.63,81.3c0-.86,0-1-.49-1h-.21a.17.17,0,0,1,0-.21c.41,0,.67,0,1,0l1,0a.17.17,0,0,1,0,.21h-.16c-.48,0-.5.18-.5,1v1c0,.16,0,.31.11.31a.5.5,0,0,0,.23-.09c.12-.1.33-.31.42-.4l.89-.88a7.69,7.69,0,0,0,.64-.68.28.28,0,0,0,.06-.13s0-.06-.14-.09l-.22,0a.14.14,0,0,1,0-.21c.28,0,.61,0,.9,0s.57,0,.82,0a.15.15,0,0,1,0,.21,1.94,1.94,0,0,0-.76.23,8.46,8.46,0,0,0-1.15,1l-.75.7c-.11.12-.19.19-.19.26s.05.12.16.25c.78.9,1.42,1.64,2.06,2.32a1,1,0,0,0,.66.33l.22,0a.14.14,0,0,1,0,.2l-.93,0-1,0c-.06,0-.09-.15,0-.2l.19,0c.12,0,.2,0,.2-.08s-.06-.11-.11-.19-.37-.42-.69-.77l-.66-.74c-.47-.53-.6-.69-.8-.69s-.14.1-.14.39v1.06c0,.87,0,1,.48,1l.23,0s0,.18,0,.2l-1,0-.95,0c-.05,0-.07-.15,0-.2l.17,0c.43-.06.45-.16.45-1Z"></path><path class="cls-8" d="M176.58,82.84a2.85,2.85,0,0,1,2.93-2.91,2.71,2.71,0,0,1,2.86,2.83,2.81,2.81,0,0,1-2.86,2.87,2.77,2.77,0,0,1-2.93-2.79m5,.17c0-1.36-.6-2.82-2.18-2.82-.85,0-2,.58-2,2.39,0,1.22.59,2.79,2.21,2.79,1,0,1.93-.73,1.93-2.36"></path><path class="cls-9" d="M176.58,82.84a2.85,2.85,0,0,1,2.93-2.91,2.71,2.71,0,0,1,2.86,2.83,2.81,2.81,0,0,1-2.86,2.87A2.77,2.77,0,0,1,176.58,82.84Zm5,.17c0-1.36-.6-2.82-2.18-2.82-.85,0-2,.58-2,2.39,0,1.22.59,2.79,2.21,2.79C180.61,85.37,181.55,84.64,181.55,83Z"></path><path class="cls-8" d="M184.87,81.3c0-.86,0-1-.53-1h-.21a.17.17,0,0,1,0-.21l1.07,0,1,0a.17.17,0,0,1,0,.21h-.2c-.49,0-.5.18-.5,1v2.87c0,.51,0,.73.17.89s.25.19.9.19.87,0,1-.11a1.78,1.78,0,0,0,.55-.82s.2,0,.2.05a6.67,6.67,0,0,1-.34,1.15l-2.06,0h-.75l-1.07,0c-.05,0-.07-.15,0-.2l.25,0c.48,0,.49-.16.49-1Z"></path><path class="cls-9" d="M184.87,81.3c0-.86,0-1-.53-1h-.21a.17.17,0,0,1,0-.21l1.07,0,1,0a.17.17,0,0,1,0,.21h-.2c-.49,0-.5.18-.5,1v2.87c0,.51,0,.73.17.89s.25.19.9.19.87,0,1-.11a1.78,1.78,0,0,0,.55-.82s.2,0,.2.05a6.67,6.67,0,0,1-.34,1.15l-2.06,0h-.75l-1.07,0c-.05,0-.07-.15,0-.2l.25,0c.48,0,.49-.16.49-1Z"></path><path class="cls-8" d="M192.79,83.59c0-.18-.09-.21-.33-.21h-1.25c-.21,0-.25,0-.31.2l-.29.87a3.34,3.34,0,0,0-.18.68c0,.1,0,.15.24.16l.27,0a.12.12,0,0,1,0,.2l-.85,0-.79,0a.15.15,0,0,1,0-.2l.27,0a.54.54,0,0,0,.5-.4c.14-.38.37-.91.72-1.83l.84-2.23a1.18,1.18,0,0,0,.14-.58.92.92,0,0,0,.43-.32.12.12,0,0,1,.12.08c.11.36.24.74.36,1.1l1.13,3.31c.24.71.35.83.7.87l.23,0a.16.16,0,0,1,0,.2l-1,0-.95,0a.13.13,0,0,1,0-.2l.23,0c.18,0,.29-.06.29-.14a1.92,1.92,0,0,0-.1-.44Zm-1.63-.73c-.06.19-.06.2.17.2h1c.24,0,.25,0,.18-.26l-.44-1.34c-.07-.2-.15-.42-.2-.52h0s-.11.24-.2.48Z"></path><path class="cls-9" d="M192.79,83.59c0-.18-.09-.21-.33-.21h-1.25c-.21,0-.25,0-.31.2l-.29.87a3.34,3.34,0,0,0-.18.68c0,.1,0,.15.24.16l.27,0a.12.12,0,0,1,0,.2l-.85,0-.79,0a.15.15,0,0,1,0-.2l.27,0a.54.54,0,0,0,.5-.4c.14-.38.37-.91.72-1.83l.84-2.23a1.18,1.18,0,0,0,.14-.58.92.92,0,0,0,.43-.32.12.12,0,0,1,.12.08c.11.36.24.74.36,1.1l1.13,3.31c.24.71.35.83.7.87l.23,0a.16.16,0,0,1,0,.2l-1,0-.95,0a.13.13,0,0,1,0-.2l.23,0c.18,0,.29-.06.29-.14a1.92,1.92,0,0,0-.1-.44Zm-1.63-.73c-.06.19-.06.2.17.2h1c.24,0,.25,0,.18-.26l-.44-1.34c-.07-.2-.15-.42-.2-.52h0s-.11.24-.2.48Z"></path><path class="cls-8" d="M200.61,85.63a2.59,2.59,0,0,1-1.28-.3,3.87,3.87,0,0,1-.23-1.16c.05,0,.17-.07.21,0a1.49,1.49,0,0,0,1.41,1.23.94.94,0,0,0,1-.95,1.23,1.23,0,0,0-.67-1.15l-.79-.51a1.76,1.76,0,0,1-.89-1.42,1.49,1.49,0,0,1,1.68-1.42,3,3,0,0,1,.77.11,1.18,1.18,0,0,0,.29,0,3.83,3.83,0,0,1,.14,1,.15.15,0,0,1-.2,0,1.08,1.08,0,0,0-1.12-.93.86.86,0,0,0-1,.91,1.29,1.29,0,0,0,.7,1l.66.41a1.85,1.85,0,0,1,1,1.58,1.55,1.55,0,0,1-1.76,1.52"></path><path class="cls-9" d="M200.61,85.63a2.59,2.59,0,0,1-1.28-.3,3.87,3.87,0,0,1-.23-1.16c.05,0,.17-.07.21,0a1.49,1.49,0,0,0,1.41,1.23.94.94,0,0,0,1-.95,1.23,1.23,0,0,0-.67-1.15l-.79-.51a1.76,1.76,0,0,1-.89-1.42,1.49,1.49,0,0,1,1.68-1.42,3,3,0,0,1,.77.11,1.18,1.18,0,0,0,.29,0,3.83,3.83,0,0,1,.14,1,.15.15,0,0,1-.2,0,1.08,1.08,0,0,0-1.12-.93.86.86,0,0,0-1,.91,1.29,1.29,0,0,0,.7,1l.66.41a1.85,1.85,0,0,1,1,1.58A1.55,1.55,0,0,1,200.61,85.63Z"></path><path class="cls-8" d="M206.89,84.27c0,.86,0,1,.5,1l.26,0s0,.18,0,.2l-1.08,0-1.15,0s-.06-.16,0-.2l.3,0c.47,0,.51-.16.51-1V80.58c0-.25,0-.26-.25-.26h-.45a1.67,1.67,0,0,0-1,.21,1.48,1.48,0,0,0-.37.56.16.16,0,0,1-.22,0,8,8,0,0,0,.32-1.23.19.19,0,0,1,.15,0c.05.26.32.26.7.26h3.34c.44,0,.52,0,.64-.23a.16.16,0,0,1,.15,0,5.26,5.26,0,0,0-.13,1.25c0,.07-.17.07-.21,0a1,1,0,0,0-.2-.6,1.66,1.66,0,0,0-1-.21h-.59c-.24,0-.24,0-.24.28Z"></path><path class="cls-9" d="M206.89,84.27c0,.86,0,1,.5,1l.26,0s0,.18,0,.2l-1.08,0-1.15,0s-.06-.16,0-.2l.3,0c.47,0,.51-.16.51-1V80.58c0-.25,0-.26-.25-.26h-.45a1.67,1.67,0,0,0-1,.21,1.48,1.48,0,0,0-.37.56.16.16,0,0,1-.22,0,8,8,0,0,0,.32-1.23.19.19,0,0,1,.15,0c.05.26.32.26.7.26h3.34c.44,0,.52,0,.64-.23a.16.16,0,0,1,.15,0,5.26,5.26,0,0,0-.13,1.25c0,.07-.17.07-.21,0a1,1,0,0,0-.2-.6,1.66,1.66,0,0,0-1-.21h-.59c-.24,0-.24,0-.24.28Z"></path><path class="cls-8" d="M211.42,81.31c0-.78,0-.92-.36-1l-.26,0a.14.14,0,0,1,0-.21c.46,0,1-.06,1.83-.06a2.89,2.89,0,0,1,1.38.25,1.22,1.22,0,0,1,.68,1.15,1.54,1.54,0,0,1-1,1.38c0,.05,0,.13,0,.19a8.85,8.85,0,0,0,1.66,2.2.94.94,0,0,0,.57.22.07.07,0,0,1,0,.12,1.07,1.07,0,0,1-.36,0c-.7,0-1.12-.2-1.7-1-.22-.3-.55-.87-.81-1.24a.59.59,0,0,0-.59-.26c-.36,0-.38,0-.38.18v1c0,.86,0,1,.49,1l.18,0s0,.18,0,.2l-1,0-1,0c-.05,0-.06-.14,0-.2l.21,0c.47-.05.49-.16.49-1Zm.68,1.18a.76.76,0,0,0,0,.27,1.72,1.72,0,0,0,.57,0,1.33,1.33,0,0,0,.85-.22,1.18,1.18,0,0,0,.41-1,1.21,1.21,0,0,0-1.32-1.27c-.51,0-.53,0-.53.27Z"></path><path class="cls-9" d="M211.42,81.31c0-.78,0-.92-.36-1l-.26,0a.14.14,0,0,1,0-.21c.46,0,1-.06,1.83-.06a2.89,2.89,0,0,1,1.38.25,1.22,1.22,0,0,1,.68,1.15,1.54,1.54,0,0,1-1,1.38c0,.05,0,.13,0,.19a8.85,8.85,0,0,0,1.66,2.2.94.94,0,0,0,.57.22.07.07,0,0,1,0,.12,1.07,1.07,0,0,1-.36,0c-.7,0-1.12-.2-1.7-1-.22-.3-.55-.87-.81-1.24a.59.59,0,0,0-.59-.26c-.36,0-.38,0-.38.18v1c0,.86,0,1,.49,1l.18,0s0,.18,0,.2l-1,0-1,0c-.05,0-.06-.14,0-.2l.21,0c.47-.05.49-.16.49-1Zm.68,1.18a.76.76,0,0,0,0,.27,1.72,1.72,0,0,0,.57,0,1.33,1.33,0,0,0,.85-.22,1.18,1.18,0,0,0,.41-1,1.21,1.21,0,0,0-1.32-1.27c-.51,0-.53,0-.53.27Z"></path><path class="cls-8" d="M221.73,82.13a5.56,5.56,0,0,0-.16-1.7c0-.1-.2-.16-.41-.18H221a.14.14,0,0,1,0-.2c.31,0,.61,0,.93,0s.57,0,.87,0a.15.15,0,0,1,0,.2h-.19a.49.49,0,0,0-.41.2,7.08,7.08,0,0,0-.12,1.68v.93a2.87,2.87,0,0,1-.58,2,2.14,2.14,0,0,1-1.57.6,2.38,2.38,0,0,1-1.54-.45,2.34,2.34,0,0,1-.64-1.94V81.29c0-.85,0-1-.49-1H217a.15.15,0,0,1,0-.2l1,0,1,0a.14.14,0,0,1,0,.2h-.19c-.48,0-.5.19-.5,1v1.78c0,1.33.41,2.2,1.68,2.2s1.64-.94,1.64-2.19Z"></path><path class="cls-9" d="M221.73,82.13a5.56,5.56,0,0,0-.16-1.7c0-.1-.2-.16-.41-.18H221a.14.14,0,0,1,0-.2c.31,0,.61,0,.93,0s.57,0,.87,0a.15.15,0,0,1,0,.2h-.19a.49.49,0,0,0-.41.2,7.08,7.08,0,0,0-.12,1.68v.93a2.87,2.87,0,0,1-.58,2,2.14,2.14,0,0,1-1.57.6,2.38,2.38,0,0,1-1.54-.45,2.34,2.34,0,0,1-.64-1.94V81.29c0-.85,0-1-.49-1H217a.15.15,0,0,1,0-.2l1,0,1,0a.14.14,0,0,1,0,.2h-.19c-.48,0-.5.19-.5,1v1.78c0,1.33.41,2.2,1.68,2.2s1.64-.94,1.64-2.19Z"></path><path class="cls-8" d="M225,81.3c0-.86,0-1-.5-1h-.2c-.06,0,0-.18,0-.21.41,0,.67,0,1,0s.6,0,.95,0a.16.16,0,0,1,0,.21h-.15c-.48,0-.5.18-.5,1v1c0,.16,0,.31.11.31a.5.5,0,0,0,.23-.09l.42-.4.89-.88a7.69,7.69,0,0,0,.64-.68.28.28,0,0,0,.06-.13s0-.06-.14-.09l-.22,0a.14.14,0,0,1,0-.21c.29,0,.62,0,.91,0s.57,0,.82,0a.17.17,0,0,1,0,.21,1.94,1.94,0,0,0-.76.23,7.84,7.84,0,0,0-1.16,1l-.74.7c-.12.12-.19.19-.19.26s0,.12.16.25c.78.9,1.41,1.64,2.06,2.32a1,1,0,0,0,.66.33l.22,0a.13.13,0,0,1,0,.2l-.92,0-1,0c-.06,0-.09-.15,0-.2l.19,0c.12,0,.2,0,.2-.08S228,85.09,228,85s-.37-.42-.68-.77l-.66-.74c-.47-.53-.6-.69-.8-.69s-.14.1-.14.39v1.06c0,.87,0,1,.48,1l.22,0c.05,0,0,.18,0,.2l-1,0-1,0s-.06-.15,0-.2l.16,0c.44-.06.46-.16.46-1Z"></path><path class="cls-9" d="M225,81.3c0-.86,0-1-.5-1h-.2c-.06,0,0-.18,0-.21.41,0,.67,0,1,0s.6,0,.95,0a.16.16,0,0,1,0,.21h-.15c-.48,0-.5.18-.5,1v1c0,.16,0,.31.11.31a.5.5,0,0,0,.23-.09l.42-.4.89-.88a7.69,7.69,0,0,0,.64-.68.28.28,0,0,0,.06-.13s0-.06-.14-.09l-.22,0a.14.14,0,0,1,0-.21c.29,0,.62,0,.91,0s.57,0,.82,0a.17.17,0,0,1,0,.21,1.94,1.94,0,0,0-.76.23,7.84,7.84,0,0,0-1.16,1l-.74.7c-.12.12-.19.19-.19.26s0,.12.16.25c.78.9,1.41,1.64,2.06,2.32a1,1,0,0,0,.66.33l.22,0a.13.13,0,0,1,0,.2l-.92,0-1,0c-.06,0-.09-.15,0-.2l.19,0c.12,0,.2,0,.2-.08S228,85.09,228,85s-.37-.42-.68-.77l-.66-.74c-.47-.53-.6-.69-.8-.69s-.14.1-.14.39v1.06c0,.87,0,1,.48,1l.22,0c.05,0,0,.18,0,.2l-1,0-1,0s-.06-.15,0-.2l.16,0c.44-.06.46-.16.46-1Z"></path><path class="cls-8" d="M231,82.84a2.84,2.84,0,0,1,2.93-2.91,2.72,2.72,0,0,1,2.86,2.83,2.81,2.81,0,0,1-2.86,2.87A2.77,2.77,0,0,1,231,82.84m5,.17c0-1.36-.61-2.82-2.18-2.82-.86,0-2,.58-2,2.39,0,1.22.6,2.79,2.22,2.79,1,0,1.93-.73,1.93-2.36"></path><path class="cls-9" d="M231,82.84a2.84,2.84,0,0,1,2.93-2.91,2.72,2.72,0,0,1,2.86,2.83,2.81,2.81,0,0,1-2.86,2.87A2.77,2.77,0,0,1,231,82.84Zm5,.17c0-1.36-.61-2.82-2.18-2.82-.86,0-2,.58-2,2.39,0,1.22.6,2.79,2.22,2.79C235,85.37,235.94,84.64,235.94,83Z"></path><path class="cls-8" d="M239,80.94c-.19-.46-.32-.64-.67-.68h-.14a.13.13,0,0,1,0-.21c.24,0,.5,0,.86,0s.65,0,1,0a.16.16,0,0,1,0,.21H240c-.31,0-.38.09-.38.16a8,8,0,0,0,.41,1.15c.38,1,.76,1.91,1.17,2.84.25-.54.6-1.39.79-1.83s.62-1.48.77-1.84a1,1,0,0,0,.07-.32c0-.06-.08-.13-.37-.16h-.15a.14.14,0,0,1,0-.21c.23,0,.54,0,.85,0s.53,0,.8,0c.06,0,.06.16,0,.21h-.25a.55.55,0,0,0-.43.29,20.62,20.62,0,0,0-.92,1.9l-.44,1c-.33.75-.72,1.71-.86,2.15l-.09,0-.12,0a9.56,9.56,0,0,0-.38-1.1Z"></path><path class="cls-9" d="M239,80.94c-.19-.46-.32-.64-.67-.68h-.14a.13.13,0,0,1,0-.21c.24,0,.5,0,.86,0s.65,0,1,0a.16.16,0,0,1,0,.21H240c-.31,0-.38.09-.38.16a8,8,0,0,0,.41,1.15c.38,1,.76,1.91,1.17,2.84.25-.54.6-1.39.79-1.83s.62-1.48.77-1.84a1,1,0,0,0,.07-.32c0-.06-.08-.13-.37-.16h-.15a.14.14,0,0,1,0-.21c.23,0,.54,0,.85,0s.53,0,.8,0c.06,0,.06.16,0,.21h-.25a.55.55,0,0,0-.43.29,20.62,20.62,0,0,0-.92,1.9l-.44,1c-.33.75-.72,1.71-.86,2.15l-.09,0-.12,0a9.56,9.56,0,0,0-.38-1.1Z"></path><path class="cls-8" d="M250.32,84.1c0,.25,0,1.23,0,1.44a.15.15,0,0,1-.15.09c-.1-.14-.34-.42-1.06-1.24l-1.91-2.18c-.23-.25-.78-.93-.95-1.11h0a2.16,2.16,0,0,0,0,.54v1.8a6.9,6.9,0,0,0,.15,1.7.55.55,0,0,0,.42.15l.26,0a.14.14,0,0,1,0,.2l-1,0-.86,0a.15.15,0,0,1,0-.2l.22,0c.19,0,.32-.07.36-.16a7.63,7.63,0,0,0,.11-1.69V81.05a.76.76,0,0,0-.18-.59,1,1,0,0,0-.51-.2h-.14c-.05,0-.05-.18,0-.21.35,0,.79,0,.93,0a2.09,2.09,0,0,0,.38,0,11.52,11.52,0,0,0,1.41,1.81l.8.9c.57.63,1,1.1,1.36,1.49h0a.91.91,0,0,0,0-.35V82.13a5.67,5.67,0,0,0-.17-1.7c0-.08-.18-.13-.51-.17h-.14a.14.14,0,0,1,0-.21l1,0c.36,0,.57,0,.85,0a.17.17,0,0,1,0,.21h-.12c-.26,0-.43.11-.46.18a6.56,6.56,0,0,0-.13,1.69Z"></path><path class="cls-9" d="M250.32,84.1c0,.25,0,1.23,0,1.44a.15.15,0,0,1-.15.09c-.1-.14-.34-.42-1.06-1.24l-1.91-2.18c-.23-.25-.78-.93-.95-1.11h0a2.16,2.16,0,0,0,0,.54v1.8a6.9,6.9,0,0,0,.15,1.7.55.55,0,0,0,.42.15l.26,0a.14.14,0,0,1,0,.2l-1,0-.86,0a.15.15,0,0,1,0-.2l.22,0c.19,0,.32-.07.36-.16a7.63,7.63,0,0,0,.11-1.69V81.05a.76.76,0,0,0-.18-.59,1,1,0,0,0-.51-.2h-.14c-.05,0-.05-.18,0-.21.35,0,.79,0,.93,0a2.09,2.09,0,0,0,.38,0,11.52,11.52,0,0,0,1.41,1.81l.8.9c.57.63,1,1.1,1.36,1.49h0a.91.91,0,0,0,0-.35V82.13a5.67,5.67,0,0,0-.17-1.7c0-.08-.18-.13-.51-.17h-.14a.14.14,0,0,1,0-.21l1,0c.36,0,.57,0,.85,0a.17.17,0,0,1,0,.21h-.12c-.26,0-.43.11-.46.18a6.56,6.56,0,0,0-.13,1.69Z"></path><path class="cls-8" d="M253.41,81.32c0-.88,0-1-.5-1.06h-.21a.17.17,0,0,1,0-.21c.41,0,.69,0,1,0l1,0c.05,0,.07.17,0,.21h-.2c-.49,0-.5.18-.5,1.06v2.93c0,.87,0,1,.5,1l.2,0c.06,0,0,.18,0,.2l-1,0-1,0c-.05,0-.07-.15,0-.2l.21,0c.48-.05.5-.17.5-1Z"></path><path class="cls-9" d="M253.41,81.32c0-.88,0-1-.5-1.06h-.21a.17.17,0,0,1,0-.21c.41,0,.69,0,1,0l1,0c.05,0,.07.17,0,.21h-.2c-.49,0-.5.18-.5,1.06v2.93c0,.87,0,1,.5,1l.2,0c.06,0,0,.18,0,.2l-1,0-1,0c-.05,0-.07-.15,0-.2l.21,0c.48-.05.5-.17.5-1Z"></path><path class="cls-8" d="M258.35,82.84c-.39,0-.41,0-.41.27v1.16c0,.86,0,1,.5,1l.24,0c.05,0,0,.18,0,.2l-1.05,0-1,0a.16.16,0,0,1,0-.2l.14,0c.46-.08.47-.16.47-1v-3c0-.86-.05-1-.48-1h-.21c-.06,0,0-.18,0-.21.41,0,.68,0,1,0s.6,0,.95,0a.17.17,0,0,1,0,.21h-.16c-.47,0-.49.18-.49,1v1c0,.25,0,.26.41.26h2.36c.39,0,.41,0,.41-.26v-1c0-.86,0-1-.5-1h-.16a.17.17,0,0,1,0-.21c.38,0,.66,0,1,0l1,0a.17.17,0,0,1,0,.21h-.17c-.48,0-.5.18-.5,1v3c0,.86,0,1,.5,1l.2,0s0,.18,0,.2l-1,0-1,0c-.05,0-.07-.15,0-.2l.16,0c.5-.08.5-.16.5-1V83.11c0-.25,0-.27-.41-.27Z"></path><path class="cls-9" d="M258.35,82.84c-.39,0-.41,0-.41.27v1.16c0,.86,0,1,.5,1l.24,0c.05,0,0,.18,0,.2l-1.05,0-1,0a.16.16,0,0,1,0-.2l.14,0c.46-.08.47-.16.47-1v-3c0-.86-.05-1-.48-1h-.21c-.06,0,0-.18,0-.21.41,0,.68,0,1,0s.6,0,.95,0a.17.17,0,0,1,0,.21h-.16c-.47,0-.49.18-.49,1v1c0,.25,0,.26.41.26h2.36c.39,0,.41,0,.41-.26v-1c0-.86,0-1-.5-1h-.16a.17.17,0,0,1,0-.21c.38,0,.66,0,1,0l1,0a.17.17,0,0,1,0,.21h-.17c-.48,0-.5.18-.5,1v3c0,.86,0,1,.5,1l.2,0s0,.18,0,.2l-1,0-1,0c-.05,0-.07-.15,0-.2l.16,0c.5-.08.5-.16.5-1V83.11c0-.25,0-.27-.41-.27Z"></path><path class="cls-8" d="M268.89,85.63a2.64,2.64,0,0,1-1.29-.3,4.26,4.26,0,0,1-.22-1.16s.16-.07.2,0A1.5,1.5,0,0,0,269,85.38a.94.94,0,0,0,1-.95,1.24,1.24,0,0,0-.68-1.15l-.78-.51a1.76,1.76,0,0,1-.89-1.42,1.49,1.49,0,0,1,1.68-1.42,3.18,3.18,0,0,1,.77.11,1.19,1.19,0,0,0,.28,0,3.42,3.42,0,0,1,.15,1c0,.05-.16.07-.2,0a1.08,1.08,0,0,0-1.12-.93.86.86,0,0,0-1,.91,1.3,1.3,0,0,0,.69,1l.66.41a1.85,1.85,0,0,1,1,1.58,1.55,1.55,0,0,1-1.75,1.52"></path><path class="cls-9" d="M268.89,85.63a2.64,2.64,0,0,1-1.29-.3,4.26,4.26,0,0,1-.22-1.16s.16-.07.2,0A1.5,1.5,0,0,0,269,85.38a.94.94,0,0,0,1-.95,1.24,1.24,0,0,0-.68-1.15l-.78-.51a1.76,1.76,0,0,1-.89-1.42,1.49,1.49,0,0,1,1.68-1.42,3.18,3.18,0,0,1,.77.11,1.19,1.19,0,0,0,.28,0,3.42,3.42,0,0,1,.15,1c0,.05-.16.07-.2,0a1.08,1.08,0,0,0-1.12-.93.86.86,0,0,0-1,.91,1.3,1.3,0,0,0,.69,1l.66.41a1.85,1.85,0,0,1,1,1.58A1.55,1.55,0,0,1,268.89,85.63Z"></path><path class="cls-8" d="M275.17,84.27c0,.86,0,1,.5,1l.26,0c.05,0,0,.18,0,.2l-1.08,0-1.14,0a.13.13,0,0,1,0-.2l.3,0c.46,0,.5-.16.5-1V80.58c0-.25,0-.26-.24-.26h-.45a1.7,1.7,0,0,0-1,.21,1.6,1.6,0,0,0-.37.56c-.06.06-.18,0-.21,0a9.23,9.23,0,0,0,.31-1.23.22.22,0,0,1,.16,0c.05.26.32.26.7.26h3.34c.44,0,.51,0,.64-.23a.16.16,0,0,1,.15,0,4.79,4.79,0,0,0-.13,1.25c0,.07-.17.07-.21,0a1.09,1.09,0,0,0-.21-.6,1.64,1.64,0,0,0-1-.21h-.58c-.25,0-.24,0-.24.28Z"></path><path class="cls-9" d="M275.17,84.27c0,.86,0,1,.5,1l.26,0c.05,0,0,.18,0,.2l-1.08,0-1.14,0a.13.13,0,0,1,0-.2l.3,0c.46,0,.5-.16.5-1V80.58c0-.25,0-.26-.24-.26h-.45a1.7,1.7,0,0,0-1,.21,1.6,1.6,0,0,0-.37.56c-.06.06-.18,0-.21,0a9.23,9.23,0,0,0,.31-1.23.22.22,0,0,1,.16,0c.05.26.32.26.7.26h3.34c.44,0,.51,0,.64-.23a.16.16,0,0,1,.15,0,4.79,4.79,0,0,0-.13,1.25c0,.07-.17.07-.21,0a1.09,1.09,0,0,0-.21-.6,1.64,1.64,0,0,0-1-.21h-.58c-.25,0-.24,0-.24.28Z"></path><path class="cls-8" d="M283.63,82.13a5.9,5.9,0,0,0-.16-1.7.53.53,0,0,0-.41-.18h-.21a.15.15,0,0,1,0-.2c.31,0,.62,0,.94,0s.57,0,.86,0a.14.14,0,0,1,0,.2h-.2a.52.52,0,0,0-.41.2,7.71,7.71,0,0,0-.11,1.68v.93a2.87,2.87,0,0,1-.58,2,2.17,2.17,0,0,1-1.58.6,2,2,0,0,1-2.18-2.39V81.29c0-.85,0-1-.49-1h-.21a.15.15,0,0,1,0-.2l1,0,1,0s.06.16,0,.2h-.2c-.47,0-.49.19-.49,1v1.78c0,1.33.41,2.2,1.67,2.2s1.65-.94,1.65-2.19Z"></path><path class="cls-9" d="M283.63,82.13a5.9,5.9,0,0,0-.16-1.7.53.53,0,0,0-.41-.18h-.21a.15.15,0,0,1,0-.2c.31,0,.62,0,.94,0s.57,0,.86,0a.14.14,0,0,1,0,.2h-.2a.52.52,0,0,0-.41.2,7.71,7.71,0,0,0-.11,1.68v.93a2.87,2.87,0,0,1-.58,2,2.17,2.17,0,0,1-1.58.6,2,2,0,0,1-2.18-2.39V81.29c0-.85,0-1-.49-1h-.21a.15.15,0,0,1,0-.2l1,0,1,0s.06.16,0,.2h-.2c-.47,0-.49.19-.49,1v1.78c0,1.33.41,2.2,1.67,2.2s1.65-.94,1.65-2.19Z"></path><path class="cls-8" d="M286.91,81.14c0-.58,0-.75-.39-.8l-.18,0a.13.13,0,0,1,0-.21c.7,0,1.37-.06,2.07-.06a5.12,5.12,0,0,1,1.81.25,2.46,2.46,0,0,1,1.67,2.43,2.7,2.7,0,0,1-1.44,2.45,3.94,3.94,0,0,1-1.84.4c-.53,0-1.06-.07-1.35-.07l-1,0a.16.16,0,0,1,0-.2l.19,0c.47-.06.49-.16.49-1Zm.67,2.94a1.49,1.49,0,0,0,.17.89c.18.26.5.34,1,.34,1.6,0,2.32-1,2.32-2.58a2.33,2.33,0,0,0-2.6-2.44,1.8,1.8,0,0,0-.81.12c-.07,0-.09.26-.09.63Z"></path><path class="cls-9" d="M286.91,81.14c0-.58,0-.75-.39-.8l-.18,0a.13.13,0,0,1,0-.21c.7,0,1.37-.06,2.07-.06a5.12,5.12,0,0,1,1.81.25,2.46,2.46,0,0,1,1.67,2.43,2.7,2.7,0,0,1-1.44,2.45,3.94,3.94,0,0,1-1.84.4c-.53,0-1.06-.07-1.35-.07l-1,0a.16.16,0,0,1,0-.2l.19,0c.47-.06.49-.16.49-1Zm.67,2.94a1.49,1.49,0,0,0,.17.89c.18.26.5.34,1,.34,1.6,0,2.32-1,2.32-2.58a2.33,2.33,0,0,0-2.6-2.44,1.8,1.8,0,0,0-.81.12c-.07,0-.09.26-.09.63Z"></path><path class="cls-8" d="M294.4,81.32c0-.88,0-1-.5-1.06h-.21a.2.2,0,0,1,0-.21c.42,0,.69,0,1,0l1,0a.17.17,0,0,1,0,.21h-.21c-.48,0-.5.18-.5,1.06v2.93c0,.87,0,1,.5,1l.21,0s0,.18,0,.2l-1,0-1,0a.18.18,0,0,1,0-.2l.21,0c.49-.05.5-.17.5-1Z"></path><path class="cls-9" d="M294.4,81.32c0-.88,0-1-.5-1.06h-.21a.2.2,0,0,1,0-.21c.42,0,.69,0,1,0l1,0a.17.17,0,0,1,0,.21h-.21c-.48,0-.5.18-.5,1.06v2.93c0,.87,0,1,.5,1l.21,0s0,.18,0,.2l-1,0-1,0a.18.18,0,0,1,0-.2l.21,0c.49-.05.5-.17.5-1Z"></path><path class="cls-8" d="M298.38,81.32c0-.92-.08-1-.57-1.06h-.2a.17.17,0,0,1,0-.21l1.11,0c.33,0,.6,0,.94,0,0,0,.06.17,0,.21h-.12c-.49.07-.5.18-.5,1.06v3.05a4.48,4.48,0,0,1-.2,1.6,1.78,1.78,0,0,1-1.62,1.19c-.09,0-.35,0-.35-.18s.13-.38.3-.38a1.11,1.11,0,0,1,.3.05,1.07,1.07,0,0,0,.35.06.36.36,0,0,0,.33-.21,7.83,7.83,0,0,0,.21-2.07Z"></path><path class="cls-9" d="M298.38,81.32c0-.92-.08-1-.57-1.06h-.2a.17.17,0,0,1,0-.21l1.11,0c.33,0,.6,0,.94,0,0,0,.06.17,0,.21h-.12c-.49.07-.5.18-.5,1.06v3.05a4.48,4.48,0,0,1-.2,1.6,1.78,1.78,0,0,1-1.62,1.19c-.09,0-.35,0-.35-.18s.13-.38.3-.38a1.11,1.11,0,0,1,.3.05,1.07,1.07,0,0,0,.35.06.36.36,0,0,0,.33-.21,7.83,7.83,0,0,0,.21-2.07Z"></path><path class="cls-8" d="M304.47,83.59c-.06-.18-.1-.21-.34-.21h-1.24c-.21,0-.26,0-.32.2l-.29.87a3.34,3.34,0,0,0-.18.68c0,.1,0,.15.24.16l.27,0a.13.13,0,0,1,0,.2l-.86,0-.79,0a.15.15,0,0,1,0-.2l.27,0a.54.54,0,0,0,.5-.4c.15-.38.38-.91.72-1.83l.84-2.23a1.07,1.07,0,0,0,.14-.58.92.92,0,0,0,.43-.32A.13.13,0,0,1,304,80c.1.36.23.74.36,1.1l1.12,3.31c.25.71.35.83.71.87l.22,0c.06,0,0,.17,0,.2l-1,0-.95,0a.13.13,0,0,1,0-.2l.24,0c.17,0,.29-.06.29-.14a2.09,2.09,0,0,0-.11-.44Zm-1.64-.73c-.06.19-.05.2.18.2h1c.24,0,.26,0,.18-.26l-.44-1.34c-.07-.2-.14-.42-.19-.52h0a4.53,4.53,0,0,0-.19.48Z"></path><path class="cls-9" d="M304.47,83.59c-.06-.18-.1-.21-.34-.21h-1.24c-.21,0-.26,0-.32.2l-.29.87a3.34,3.34,0,0,0-.18.68c0,.1,0,.15.24.16l.27,0a.13.13,0,0,1,0,.2l-.86,0-.79,0a.15.15,0,0,1,0-.2l.27,0a.54.54,0,0,0,.5-.4c.15-.38.38-.91.72-1.83l.84-2.23a1.07,1.07,0,0,0,.14-.58.92.92,0,0,0,.43-.32A.13.13,0,0,1,304,80c.1.36.23.74.36,1.1l1.12,3.31c.25.71.35.83.71.87l.22,0c.06,0,0,.17,0,.2l-1,0-.95,0a.13.13,0,0,1,0-.2l.24,0c.17,0,.29-.06.29-.14a2.09,2.09,0,0,0-.11-.44Zm-1.64-.73c-.06.19-.05.2.18.2h1c.24,0,.26,0,.18-.26l-.44-1.34c-.07-.2-.14-.42-.19-.52h0a4.53,4.53,0,0,0-.19.48Z"></path><path class="cls-8" d="M313.34,81.78c.43-.61.67-.93.8-1.17a.55.55,0,0,0,.1-.22s-.09-.07-.3-.07h-1.22c-.66,0-1,.06-1.23.27a2,2,0,0,0-.36.56.17.17,0,0,1-.21-.05c.1-.29.24-.79.34-1.24a.12.12,0,0,1,.14,0c0,.2.14.21.81.21h2.18a6.91,6.91,0,0,0,.94,0,.06.06,0,0,1,.05.07A17.19,17.19,0,0,0,314,81.88l-1.36,2a10.73,10.73,0,0,0-.81,1.27c0,.08.08.1.23.12s.64,0,1.22,0a4,4,0,0,0,1.52-.19,1.64,1.64,0,0,0,.58-.76c.07,0,.18,0,.2,0a4.36,4.36,0,0,1-.37,1.17l-1.5,0h-2.11l-.92,0s0,0,0-.09a9.64,9.64,0,0,0,.9-1.12Z"></path><path class="cls-9" d="M313.34,81.78c.43-.61.67-.93.8-1.17a.55.55,0,0,0,.1-.22s-.09-.07-.3-.07h-1.22c-.66,0-1,.06-1.23.27a2,2,0,0,0-.36.56.17.17,0,0,1-.21-.05c.1-.29.24-.79.34-1.24a.12.12,0,0,1,.14,0c0,.2.14.21.81.21h2.18a6.91,6.91,0,0,0,.94,0,.06.06,0,0,1,.05.07A17.19,17.19,0,0,0,314,81.88l-1.36,2a10.73,10.73,0,0,0-.81,1.27c0,.08.08.1.23.12s.64,0,1.22,0a4,4,0,0,0,1.52-.19,1.64,1.64,0,0,0,.58-.76c.07,0,.18,0,.2,0a4.36,4.36,0,0,1-.37,1.17l-1.5,0h-2.11l-.92,0s0,0,0-.09a9.64,9.64,0,0,0,.9-1.12Z"></path><path class="cls-8" d="M320.14,83.59c-.06-.18-.09-.21-.34-.21h-1.24c-.21,0-.26,0-.31.2l-.29.87a2.74,2.74,0,0,0-.18.68c0,.1,0,.15.24.16l.27,0a.12.12,0,0,1,0,.2l-.85,0-.8,0a.15.15,0,0,1,0-.2l.27,0a.52.52,0,0,0,.49-.4c.15-.38.38-.91.73-1.83l.84-2.23a1.31,1.31,0,0,0,.14-.58.92.92,0,0,0,.43-.32.12.12,0,0,1,.12.08c.11.36.24.74.36,1.1l1.13,3.31c.24.71.35.83.7.87l.22,0c.06,0,0,.17,0,.2l-1,0-.95,0a.13.13,0,0,1,0-.2l.24,0c.17,0,.29-.06.29-.14a1.6,1.6,0,0,0-.11-.44Zm-1.63-.73c-.07.19-.06.2.17.2h1c.23,0,.25,0,.18-.26l-.45-1.34a4,4,0,0,0-.19-.52h0a3.81,3.81,0,0,0-.2.48Z"></path><path class="cls-9" d="M320.14,83.59c-.06-.18-.09-.21-.34-.21h-1.24c-.21,0-.26,0-.31.2l-.29.87a2.74,2.74,0,0,0-.18.68c0,.1,0,.15.24.16l.27,0a.12.12,0,0,1,0,.2l-.85,0-.8,0a.15.15,0,0,1,0-.2l.27,0a.52.52,0,0,0,.49-.4c.15-.38.38-.91.73-1.83l.84-2.23a1.31,1.31,0,0,0,.14-.58.92.92,0,0,0,.43-.32.12.12,0,0,1,.12.08c.11.36.24.74.36,1.1l1.13,3.31c.24.71.35.83.7.87l.22,0c.06,0,0,.17,0,.2l-1,0-.95,0a.13.13,0,0,1,0-.2l.24,0c.17,0,.29-.06.29-.14a1.6,1.6,0,0,0-.11-.44Zm-1.63-.73c-.07.19-.06.2.17.2h1c.23,0,.25,0,.18-.26l-.45-1.34a4,4,0,0,0-.19-.52h0a3.81,3.81,0,0,0-.2.48Z"></path><path class="cls-8" d="M327.17,81.32c0-.88,0-1-.5-1.06h-.2c-.06,0,0-.18,0-.21.41,0,.69,0,1,0l1,0a.17.17,0,0,1,0,.21h-.2c-.49,0-.5.18-.5,1.06v2.93c0,.87,0,1,.5,1l.2,0c.05,0,0,.18,0,.2l-1,0-1,0a.14.14,0,0,1,0-.2l.2,0c.48-.05.5-.17.5-1Z"></path><path class="cls-9" d="M327.17,81.32c0-.88,0-1-.5-1.06h-.2c-.06,0,0-.18,0-.21.41,0,.69,0,1,0l1,0a.17.17,0,0,1,0,.21h-.2c-.49,0-.5.18-.5,1.06v2.93c0,.87,0,1,.5,1l.2,0c.05,0,0,.18,0,.2l-1,0-1,0a.14.14,0,0,1,0-.2l.2,0c.48-.05.5-.17.5-1Z"></path><path class="cls-8" d="M333,84.27c0,.86,0,1,.49,1l.27,0c.05,0,0,.18,0,.2l-1.08,0-1.14,0a.13.13,0,0,1,0-.2l.29,0c.47,0,.52-.16.52-1V80.58c0-.25,0-.26-.25-.26h-.46a1.69,1.69,0,0,0-1,.21,1.48,1.48,0,0,0-.37.56.15.15,0,0,1-.21,0,9.23,9.23,0,0,0,.31-1.23.22.22,0,0,1,.16,0c.05.26.32.26.7.26h3.33c.45,0,.52,0,.64-.23.05,0,.14,0,.15,0a4.75,4.75,0,0,0-.12,1.25c0,.07-.17.07-.21,0a1.09,1.09,0,0,0-.21-.6,1.64,1.64,0,0,0-1-.21h-.58c-.25,0-.24,0-.24.28Z"></path><path class="cls-9" d="M333,84.27c0,.86,0,1,.49,1l.27,0c.05,0,0,.18,0,.2l-1.08,0-1.14,0a.13.13,0,0,1,0-.2l.29,0c.47,0,.52-.16.52-1V80.58c0-.25,0-.26-.25-.26h-.46a1.69,1.69,0,0,0-1,.21,1.48,1.48,0,0,0-.37.56.15.15,0,0,1-.21,0,9.23,9.23,0,0,0,.31-1.23.22.22,0,0,1,.16,0c.05.26.32.26.7.26h3.33c.45,0,.52,0,.64-.23.05,0,.14,0,.15,0a4.75,4.75,0,0,0-.12,1.25c0,.07-.17.07-.21,0a1.09,1.09,0,0,0-.21-.6,1.64,1.64,0,0,0-1-.21h-.58c-.25,0-.24,0-.24.28Z"></path></g><g class="cls-12"><rect class="cls-13" x="-7.98" y="-14.43" width="148.87" height="148.87" transform="translate(-22.96 64.57) rotate(-45)"></rect></g><g class="cls-7"><path class="cls-8" d="M66.46,7.56A52.44,52.44,0,1,1,14,60,52.43,52.43,0,0,1,66.46,7.56m0-.39A52.83,52.83,0,1,0,119.28,60,52.89,52.89,0,0,0,66.46,7.17"></path><path class="cls-11" d="M27.76,60a38.7,38.7,0,1,0,38.7-38.7A38.7,38.7,0,0,0,27.76,60"></path><path class="cls-11" d="M30.1,60A36.42,36.42,0,1,0,66.52,23.56,36.42,36.42,0,0,0,30.1,60"></path><path class="cls-14" d="M30.1,60A36.42,36.42,0,1,0,66.52,23.56,36.42,36.42,0,0,0,30.1,60Z"></path></g><text class="cls-15" transform="matrix(-0.28, -0.96, 0.96, -0.28, 26.15, 73.48)">I</text><text class="cls-16" transform="matrix(-0.13, -0.99, 0.99, -0.13, 24.79, 68.88)">N</text><text class="cls-17" transform="translate(23.94 60.58) rotate(-87.37)">F</text><text class="cls-18" transform="matrix(0.22, -0.98, 0.98, 0.22, 24.25, 54.13)">O</text><text class="cls-19" transform="translate(26.35 45.72) rotate(-66.2)">R</text><text class="cls-20" transform="matrix(0.58, -0.81, 0.81, 0.58, 29.38, 38.89)">M</text><text class="cls-21" transform="translate(35.27 31.05) rotate(-43.21)">A</text><text class="cls-22" transform="matrix(0.83, -0.56, 0.56, 0.83, 40.07, 26.61)">T</text><text class="cls-23" transform="translate(46.26 22.61) rotate(-26.07)">I</text><text class="cls-24" transform="translate(50.56 20.46) rotate(-16.92)">O</text><text class="cls-25" transform="translate(58.9 18.08) rotate(-5.44)">N</text><text class="cls-26" transform="matrix(1, 0.04, -0.04, 1, 67.25, 17.54)"> </text><text class="cls-27" transform="translate(70.54 17.64) rotate(9.5)">T</text><text class="cls-28" transform="translate(77.79 18.99) rotate(19.18)">E</text><text class="cls-29" transform="translate(84.27 21.33) rotate(29.12)">C</text><text class="cls-30" transform="matrix(0.76, 0.65, -0.65, 0.76, 90.97, 25.14)">H</text><text class="cls-31" transform="matrix(0.62, 0.78, -0.78, 0.62, 97.63, 30.97)">N</text><text class="cls-32" transform="translate(102.68 37.56) rotate(63.14)">O</text><text class="cls-33" transform="translate(106.41 45.38) rotate(73.61)">L</text><text class="cls-34" transform="translate(108.24 51.63) rotate(83.7)">O</text><text class="cls-17" transform="matrix(-0.09, 1, -1, -0.09, 109.04, 60.25)">G</text><text class="cls-35" transform="translate(108.16 68.39) rotate(104.96)">Y</text><text class="cls-36" transform="translate(40.7 101.16) rotate(29.29)">S</text><text class="cls-37" transform="translate(47.55 104.78) rotate(19.09)">C</text><text class="cls-38" transform="translate(56.66 107.64) rotate(7.11)">H</text><g class="cls-7"><text class="cls-39" transform="translate(67.29 108.62) rotate(-5.26)">O</text></g><text class="cls-15" transform="matrix(0.95, -0.3, 0.3, 0.95, 77.72, 107.31)">O</text><text class="cls-16" transform="matrix(0.87, -0.48, 0.48, 0.87, 87.53, 103.76)">L</text><g class="cls-7"><polygon class="cls-40" points="108.9 77.66 107.94 75.25 107 77.67 104.39 77.81 106.41 79.47 105.78 81.99 107.96 80.58 110.14 81.95 109.49 79.45 111.51 77.78 108.9 77.66"></polygon><polygon class="cls-40" points="103.81 86.35 102.93 84.14 102.07 86.36 99.68 86.49 101.53 88.01 100.95 90.32 102.95 89.03 104.95 90.28 104.35 88 106.21 86.47 103.81 86.35"></polygon><polygon class="cls-40" points="96.88 94.05 96.1 92.12 95.35 94.06 93.27 94.17 94.88 95.5 94.38 97.52 96.12 96.39 97.87 97.48 97.35 95.49 98.96 94.15 96.88 94.05"></polygon><polygon class="cls-40" points="24.52 78.23 25.48 75.82 26.42 78.24 29.03 78.38 27.01 80.04 27.64 82.57 25.46 81.15 23.28 82.52 23.93 80.03 21.91 78.36 24.52 78.23"></polygon><polygon class="cls-40" points="29.57 86.75 30.45 84.54 31.31 86.76 33.7 86.89 31.86 88.41 32.43 90.72 30.43 89.43 28.43 90.68 29.03 88.39 27.18 86.86 29.57 86.75"></polygon><polygon class="cls-40" points="36.5 94.07 37.27 92.14 38.02 94.08 40.1 94.19 38.49 95.52 39 97.54 37.25 96.41 35.5 97.5 36.02 95.51 34.41 94.17 36.5 94.07"></polygon><path class="cls-40" d="M66,52.38v16.5c-3.19-4.5-10.49-5.73-10.49-5.73V45.27S66,48.21,66,52.38"></path><path class="cls-40" d="M54.48,49H51.54v19.4C60.5,67.9,66,70.48,66,70.48s-3-5.4-11.53-6.28Z"></path><path class="cls-40" d="M67.1,52.38v16.5c3.18-4.5,10.48-5.73,10.48-5.73V45.27S67.1,48.21,67.1,52.38"></path><path class="cls-40" d="M78.62,49h2.94v19.4c-9-.52-14.46,2.06-14.46,2.06s3-5.4,11.52-6.28Z"></path><path class="cls-41" d="M84.29,38.71A27.35,27.35,0,0,1,69.55,86.52c3.59.48,6.27,1.78,6.66,3.35L74.11,91a2.11,2.11,0,0,0,0-.25c0-2.21-3.41-4-7.58-4S59,88.52,59,90.73A2.11,2.11,0,0,0,59,91l-2.1-1.11C57.28,88.3,60,87,63.55,86.52A27.35,27.35,0,0,1,48.81,38.71a27.35,27.35,0,0,0-8.88,20.2c0,15,12,27.15,26.62,27.15S93.16,73.87,93.16,58.91a27.3,27.3,0,0,0-8.87-20.2"></path><path class="cls-40" d="M45.13,69.75a3.76,3.76,0,0,1,.2-1.15,2.92,2.92,0,0,1,.54-.95.13.13,0,1,1,.2.16,3,3,0,0,0-.49.88,3.27,3.27,0,0,0-.19,1.08c0,.18-.27.16-.26,0M44.76,73a6.44,6.44,0,0,0,2.93-3.87,7,7,0,0,0-1.06-4.6,10.74,10.74,0,0,1-.94,2.08,8,8,0,0,0-1,2.39,10.42,10.42,0,0,0-.17,2.17A8.73,8.73,0,0,0,44.76,73"></path><path class="cls-40" d="M48.56,75.4a3.8,3.8,0,0,1-.13-1.16,3.09,3.09,0,0,1,.25-1.06c.07-.16.32-.06.25.09a2.76,2.76,0,0,0-.24,1,3.69,3.69,0,0,0,.12,1.09c0,.17-.21.22-.25.05m.54,3.21a6.41,6.41,0,0,0,1.74-4.54A7,7,0,0,0,48.54,70a11.19,11.19,0,0,1-.32,2.25,8.06,8.06,0,0,0-.28,2.56,10.93,10.93,0,0,0,.44,2.14,8.77,8.77,0,0,0,.72,1.7"></path><path class="cls-40" d="M38,63.86a4.68,4.68,0,0,0-.69-1.18,3.84,3.84,0,0,0-1-.83.15.15,0,1,0-.15.25,3.28,3.28,0,0,1,.88.77,4.17,4.17,0,0,1,.64,1.1.15.15,0,1,0,.27-.11m1.73,3.34a7.85,7.85,0,0,1-4.67-3.14,8.12,8.12,0,0,1-.79-5.31,12.82,12.82,0,0,0,1.84,1.9,10,10,0,0,1,2,2.23,12.86,12.86,0,0,1,1.08,2.27,10.91,10.91,0,0,1,.53,2"></path><path class="cls-40" d="M49.09,82.66a5.09,5.09,0,0,0-1.42-.49,4.45,4.45,0,0,0-1.41,0,.16.16,0,1,0,.05.31,3.78,3.78,0,0,1,1.3,0,4.92,4.92,0,0,1,1.34.45.16.16,0,1,0,.14-.28M53,84.21c-2.45,1.07-4.46,1.3-6.2.75a9,9,0,0,1-4.52-3.88,13.65,13.65,0,0,0,2.92.26,11.09,11.09,0,0,1,3.31.41A16,16,0,0,1,51,82.87,13.42,13.42,0,0,1,53,84.21"></path><path class="cls-40" d="M43.59,77.44a5.12,5.12,0,0,0-1.19-.76,4.15,4.15,0,0,0-1.28-.32.15.15,0,1,0,0,.3,3.37,3.37,0,0,1,1.18.3,4.25,4.25,0,0,1,1.12.71.15.15,0,1,0,.19-.23m3.19,2.28c-2.47.43-4.36.2-5.82-.7a8.48,8.48,0,0,1-3.26-4.55,14.72,14.72,0,0,0,2.61.9,10.4,10.4,0,0,1,2.92,1.11,13.33,13.33,0,0,1,2.09,1.6,11.58,11.58,0,0,1,1.46,1.64"></path><path class="cls-40" d="M39.8,70.88a4.71,4.71,0,0,0-.94-1,3.72,3.72,0,0,0-1.15-.65.15.15,0,1,0-.11.28,3.49,3.49,0,0,1,1.07.6,4.7,4.7,0,0,1,.89,1,.15.15,0,1,0,.24-.17m2.47,3c-2.5-.24-4.26-1-5.42-2.22a8.47,8.47,0,0,1-1.93-5.26A13.22,13.22,0,0,0,37.2,68a10.59,10.59,0,0,1,2.52,1.86A13.05,13.05,0,0,1,41.3,72a11.84,11.84,0,0,1,1,2"></path><path class="cls-40" d="M37.65,56.2A4.42,4.42,0,0,0,37.33,55a3.83,3.83,0,0,0-.65-1,.14.14,0,1,0-.2.19,3.21,3.21,0,0,1,.6.93,4.45,4.45,0,0,1,.3,1.18.14.14,0,1,0,.27,0m.7,3.52a7.45,7.45,0,0,1-3.44-4.12,7.7,7.7,0,0,1,.68-5.07,12,12,0,0,0,1.18,2.23A9.8,9.8,0,0,1,38,55.34a12.6,12.6,0,0,1,.39,2.36,11.78,11.78,0,0,1-.06,2"></path><path class="cls-40" d="M39.45,48.74a4.5,4.5,0,0,0,0-1.27,3.6,3.6,0,0,0-.37-1.12.13.13,0,1,0-.23.13,3.56,3.56,0,0,1,.34,1,4.31,4.31,0,0,1,0,1.19.13.13,0,1,0,.26,0m-.19,3.5A7.31,7.31,0,0,1,37,47.51a7.61,7.61,0,0,1,1.88-4.65,12.79,12.79,0,0,0,.57,2.4A9.21,9.21,0,0,1,40,48a11.29,11.29,0,0,1-.74,4.23"></path><path class="cls-40" d="M42.9,42.29a4,4,0,0,0,.27-1.13,2.82,2.82,0,0,0-.12-1.07.13.13,0,1,0-.25.07,2.8,2.8,0,0,1,.11,1,4,4,0,0,1-.25,1.06c-.07.16.17.24.24.08M42,45.37a6.29,6.29,0,0,1-1.16-4.66,7,7,0,0,1,2.76-3.77,10.54,10.54,0,0,0,.05,2.26,8.1,8.1,0,0,1-.05,2.55,11,11,0,0,1-.68,2A9.31,9.31,0,0,1,42,45.37"></path><path class="cls-40" d="M47.67,37.18a3.66,3.66,0,0,0,.5-1,2.85,2.85,0,0,0,.15-1,.13.13,0,0,0-.25,0,2.39,2.39,0,0,1-.13.93,3.26,3.26,0,0,1-.48.9c-.09.13.11.27.21.14m-1.56,2.59a6,6,0,0,1,0-4.52,6.53,6.53,0,0,1,3.4-2.79,9.82,9.82,0,0,0-.49,2.07,7.26,7.26,0,0,1-.64,2.31,9.59,9.59,0,0,1-1.1,1.7,9.42,9.42,0,0,1-1.2,1.23"></path><path class="cls-40" d="M50.26,41a3.48,3.48,0,0,1,1-.32,3,3,0,0,1,1,.06c.16,0,.1.28-.06.24a2.44,2.44,0,0,0-.93,0,3.08,3.08,0,0,0-1,.29.12.12,0,1,1-.09-.22m-2.85,1a5.94,5.94,0,0,0,4.44.83A6.45,6.45,0,0,0,55.24,40a10.14,10.14,0,0,1-2.11.08,7.26,7.26,0,0,0-2.4.18,9.57,9.57,0,0,0-1.88.75,8.56,8.56,0,0,0-1.44,1"></path><path class="cls-40" d="M46.66,45.72a3.47,3.47,0,0,1,1-.51,3,3,0,0,1,1.08-.12.13.13,0,1,1,0,.26,2.47,2.47,0,0,0-1,.11,3.54,3.54,0,0,0-1,.47.13.13,0,1,1-.14-.21m-2.81,1.56a6.32,6.32,0,0,0,4.81.12,7,7,0,0,0,3.07-3.51,11,11,0,0,1-2.2.44,7.88,7.88,0,0,0-2.49.6A10.67,10.67,0,0,0,45.2,46a10.5,10.5,0,0,0-1.35,1.24"></path><path class="cls-40" d="M43.82,51.43a3.9,3.9,0,0,1,.89-.74,3,3,0,0,1,1-.37.13.13,0,1,1,.05.25,2.87,2.87,0,0,0-.93.34,3.3,3.3,0,0,0-.84.7c-.12.13-.3,0-.19-.18m-2.34,2.19a6.3,6.3,0,0,0,4.68-1,6.92,6.92,0,0,0,2.15-4.15,10.32,10.32,0,0,1-2,1A8,8,0,0,0,44,50.57a10,10,0,0,0-1.53,1.53,7.9,7.9,0,0,0-1,1.52"></path><path class="cls-40" d="M42.7,57.71a3.75,3.75,0,0,1,.69-.93,3.15,3.15,0,0,1,.9-.6c.17-.06.28.17.11.24a3,3,0,0,0-.83.55,3.47,3.47,0,0,0-.65.87c-.08.16-.3,0-.22-.13m-1.78,2.68a6.26,6.26,0,0,0,4.32-2.1,6.9,6.9,0,0,0,1.13-4.53,10.67,10.67,0,0,1-1.76,1.41,7.82,7.82,0,0,0-1.93,1.67,10.44,10.44,0,0,0-1.13,1.83,9.64,9.64,0,0,0-.63,1.72"></path><path class="cls-40" d="M53.4,79.22A3.86,3.86,0,0,1,53.06,78a3.23,3.23,0,0,1,.08-1.15c0-.18.32-.12.27.06A3,3,0,0,0,53.33,78a3.7,3.7,0,0,0,.33,1.12.14.14,0,1,1-.26.1m1.12,3.25c1.08-2,1.41-3.58,1-5a7.43,7.43,0,0,0-3.12-3.9A11,11,0,0,1,52.48,76a8.17,8.17,0,0,0,.17,2.73,10.49,10.49,0,0,0,.82,2.14,10.05,10.05,0,0,0,1.05,1.65"></path><path class="cls-40" d="M53.41,36.09a4.38,4.38,0,0,1,1.11-.54,3.16,3.16,0,0,1,1.15-.12.14.14,0,0,1,0,.28,2.83,2.83,0,0,0-1,.11,3.7,3.7,0,0,0-1,.5.14.14,0,1,1-.15-.23m-3,1.66a6.77,6.77,0,0,0,5.13.14,7.4,7.4,0,0,0,3.28-3.73,12.47,12.47,0,0,1-2.36.47,8.14,8.14,0,0,0-2.64.63,10.71,10.71,0,0,0-3.41,2.49"></path><path class="cls-40" d="M43.41,63.61a3.34,3.34,0,0,1,.48-1,3.08,3.08,0,0,1,.76-.77.13.13,0,1,1,.16.21,2.62,2.62,0,0,0-.7.71,3.54,3.54,0,0,0-.47,1,.12.12,0,1,1-.23-.08m-1.21,3A6.34,6.34,0,0,0,46,63.66,6.88,6.88,0,0,0,46.19,59a10,10,0,0,1-1.43,1.73,8.07,8.07,0,0,0-1.56,2,11,11,0,0,0-.73,2,9.57,9.57,0,0,0-.27,1.81"></path><path class="cls-40" d="M88,69.75a3.76,3.76,0,0,0-.2-1.15,2.92,2.92,0,0,0-.54-.95.13.13,0,1,0-.2.16,2.77,2.77,0,0,1,.5.88,3.54,3.54,0,0,1,.18,1.08.13.13,0,1,0,.26,0M88.35,73a6.36,6.36,0,0,1-2.93-3.87,6.93,6.93,0,0,1,1.06-4.6,10.73,10.73,0,0,0,.93,2.08,7.77,7.77,0,0,1,1,2.39,11.2,11.2,0,0,1,.18,2.17A10.31,10.31,0,0,1,88.35,73"></path><path class="cls-40" d="M84.54,75.4a3.8,3.8,0,0,0,.13-1.16,2.9,2.9,0,0,0-.26-1.06c-.06-.16-.31-.06-.24.09a2.76,2.76,0,0,1,.24,1,3.69,3.69,0,0,1-.12,1.09c-.05.17.21.22.25.05M84,78.61a6.41,6.41,0,0,1-1.74-4.54A7,7,0,0,1,84.56,70a10.51,10.51,0,0,0,.33,2.25,8.06,8.06,0,0,1,.27,2.56,11,11,0,0,1-.43,2.14,9.42,9.42,0,0,1-.73,1.7"></path><path class="cls-40" d="M95.06,63.86a4.68,4.68,0,0,1,.69-1.18,4,4,0,0,1,1-.83.15.15,0,1,1,.15.25,3.28,3.28,0,0,0-.88.77,4.49,4.49,0,0,0-.65,1.1.14.14,0,1,1-.26-.11M93.33,67.2A7.81,7.81,0,0,0,98,64.06a8.12,8.12,0,0,0,.8-5.31A13.91,13.91,0,0,1,97,60.65a9.81,9.81,0,0,0-2,2.23,13.61,13.61,0,0,0-1.08,2.27,10.91,10.91,0,0,0-.53,2"></path><path class="cls-40" d="M84,82.66a5.15,5.15,0,0,1,1.43-.49,4.38,4.38,0,0,1,1.4,0,.16.16,0,1,1,0,.31,3.78,3.78,0,0,0-1.3,0,5,5,0,0,0-1.34.45.16.16,0,1,1-.14-.28m-3.88,1.55c2.45,1.07,4.46,1.3,6.2.75a9,9,0,0,0,4.52-3.88,13.65,13.65,0,0,1-2.92.26,11.13,11.13,0,0,0-3.31.41,15.62,15.62,0,0,0-2.56,1.12,12.88,12.88,0,0,0-1.93,1.34"></path><path class="cls-40" d="M89.51,77.44a5.12,5.12,0,0,1,1.19-.76A4.15,4.15,0,0,1,92,76.36a.15.15,0,1,1,0,.3,3.37,3.37,0,0,0-1.18.3,4.36,4.36,0,0,0-1.11.71.15.15,0,1,1-.2-.23m-3.19,2.28c2.48.43,4.36.2,5.82-.7a8.48,8.48,0,0,0,3.26-4.55,14.72,14.72,0,0,1-2.61.9,10.4,10.4,0,0,0-2.92,1.11,12.77,12.77,0,0,0-2.08,1.6,11.1,11.1,0,0,0-1.47,1.64"></path><path class="cls-40" d="M93.3,70.88a4.52,4.52,0,0,1,1-1,3.56,3.56,0,0,1,1.14-.65.15.15,0,1,1,.11.28,3.61,3.61,0,0,0-1.07.6,4.17,4.17,0,0,0-.88,1,.15.15,0,1,1-.25-.17m-2.47,3a8.16,8.16,0,0,0,5.43-2.22,8.47,8.47,0,0,0,1.92-5.26A13.15,13.15,0,0,1,95.91,68a10.44,10.44,0,0,0-2.53,1.86A13.05,13.05,0,0,0,91.8,72a11.84,11.84,0,0,0-1,2"></path><path class="cls-40" d="M95.45,56.2A4.42,4.42,0,0,1,95.77,55a3.43,3.43,0,0,1,.66-1,.14.14,0,1,1,.19.19,3.44,3.44,0,0,0-.6.93,4.45,4.45,0,0,0-.3,1.18.14.14,0,1,1-.27,0m-.7,3.52A7.51,7.51,0,0,0,98.2,55.6a7.76,7.76,0,0,0-.68-5.07,13.36,13.36,0,0,1-1.18,2.23,9.5,9.5,0,0,0-1.25,2.58,11.19,11.19,0,0,0-.34,4.38"></path><path class="cls-40" d="M93.65,48.74a4.5,4.5,0,0,1,0-1.27A3.6,3.6,0,0,1,94,46.35a.14.14,0,1,1,.24.13,3,3,0,0,0-.34,1,4,4,0,0,0,0,1.19.14.14,0,1,1-.27,0m.2,3.5a7.34,7.34,0,0,0,2.26-4.73,7.61,7.61,0,0,0-1.88-4.65,12.05,12.05,0,0,1-.57,2.4A9.21,9.21,0,0,0,93.1,48a12,12,0,0,0,.2,2.33,10.36,10.36,0,0,0,.55,1.9"></path><path class="cls-40" d="M90.2,42.29a3.65,3.65,0,0,1-.26-1.13,2.81,2.81,0,0,1,.11-1.07.13.13,0,1,1,.25.07,2.8,2.8,0,0,0-.11,1,4,4,0,0,0,.25,1.06c.07.16-.17.24-.24.08m.92,3.08a6.29,6.29,0,0,0,1.16-4.66,6.93,6.93,0,0,0-2.76-3.77,11.26,11.26,0,0,1,0,2.26,7.81,7.81,0,0,0,0,2.55,10.27,10.27,0,0,0,.69,2,8.68,8.68,0,0,0,.91,1.57"></path><path class="cls-40" d="M85.44,37.18a3.42,3.42,0,0,1-.51-1,2.63,2.63,0,0,1-.14-1,.12.12,0,1,1,.24,0,2.39,2.39,0,0,0,.13.93,3.26,3.26,0,0,0,.48.9.12.12,0,0,1-.2.14M87,39.77a6,6,0,0,0,0-4.52,6.53,6.53,0,0,0-3.4-2.79,10.48,10.48,0,0,1,.49,2.07,7.26,7.26,0,0,0,.64,2.31,9.59,9.59,0,0,0,1.1,1.7A8.85,8.85,0,0,0,87,39.77"></path><path class="cls-40" d="M82.84,41a3.48,3.48,0,0,0-1-.32,2.88,2.88,0,0,0-1,.06c-.16,0-.11.28,0,.24a2.51,2.51,0,0,1,.94,0,3.08,3.08,0,0,1,1,.29.12.12,0,1,0,.09-.22m2.85,1a5.94,5.94,0,0,1-4.44.83A6.45,6.45,0,0,1,77.86,40a10.14,10.14,0,0,0,2.11.08,7.26,7.26,0,0,1,2.4.18,9.57,9.57,0,0,1,1.88.75,7.81,7.81,0,0,1,1.44,1"></path><path class="cls-40" d="M86.44,45.72a3.47,3.47,0,0,0-1-.51,2.94,2.94,0,0,0-1.07-.12.13.13,0,1,0,0,.26,2.55,2.55,0,0,1,1,.11,3.68,3.68,0,0,1,1,.47c.14.1.27-.12.13-.21m2.81,1.56a6.3,6.3,0,0,1-4.8.12,6.92,6.92,0,0,1-3.08-3.51,10.94,10.94,0,0,0,2.21.44,7.89,7.89,0,0,1,2.48.6A10.67,10.67,0,0,1,87.9,46a9.87,9.87,0,0,1,1.35,1.24"></path><path class="cls-40" d="M89.28,51.43a3.69,3.69,0,0,0-.89-.74,3,3,0,0,0-1-.37.13.13,0,1,0-.05.25,3,3,0,0,1,.94.34,3.43,3.43,0,0,1,.83.7c.12.13.3,0,.19-.18m2.35,2.19a6.32,6.32,0,0,1-4.69-1,6.92,6.92,0,0,1-2.15-4.15,10.13,10.13,0,0,0,2,1,8,8,0,0,1,2.26,1.17,10,10,0,0,1,1.53,1.53,8.5,8.5,0,0,1,1,1.52"></path><path class="cls-40" d="M90.4,57.71a3.52,3.52,0,0,0-.69-.93,3.15,3.15,0,0,0-.9-.6c-.16-.06-.28.17-.11.24a2.86,2.86,0,0,1,.83.55,3.73,3.73,0,0,1,.65.87c.08.16.3,0,.22-.13m1.78,2.68a6.3,6.3,0,0,1-4.32-2.1,6.9,6.9,0,0,1-1.13-4.53,10.67,10.67,0,0,0,1.76,1.41,8,8,0,0,1,1.94,1.67,9.8,9.8,0,0,1,1.12,1.83,8.92,8.92,0,0,1,.63,1.72"></path><path class="cls-40" d="M79.7,79.22A3.86,3.86,0,0,0,80,78,3.22,3.22,0,0,0,80,76.88a.14.14,0,0,0-.28.06A2.56,2.56,0,0,1,79.76,78a3.42,3.42,0,0,1-.32,1.12.14.14,0,0,0,.26.1m-1.12,3.25c-1.08-2-1.41-3.58-1-5a7.38,7.38,0,0,1,3.12-3.9A11.6,11.6,0,0,0,80.62,76a8.43,8.43,0,0,1-.16,2.73,11.1,11.1,0,0,1-.83,2.14,10.05,10.05,0,0,1-1,1.65"></path><path class="cls-40" d="M79.69,36.09a4.23,4.23,0,0,0-1.11-.54,3.11,3.11,0,0,0-1.15-.12.14.14,0,0,0,0,.28,2.81,2.81,0,0,1,1,.11,3.89,3.89,0,0,1,1,.5c.15.11.29-.13.14-.23m3,1.66a6.75,6.75,0,0,1-5.12.14,7.37,7.37,0,0,1-3.29-3.73,12.47,12.47,0,0,0,2.36.47,8.08,8.08,0,0,1,2.64.63,10.71,10.71,0,0,1,3.41,2.49"></path><path class="cls-40" d="M89.7,63.61a3.6,3.6,0,0,0-.49-1,3.08,3.08,0,0,0-.76-.77.13.13,0,1,0-.15.21,3,3,0,0,1,.7.71,3.82,3.82,0,0,1,.46,1,.13.13,0,1,0,.24-.08m1.2,3a6.37,6.37,0,0,1-3.81-2.93A6.88,6.88,0,0,1,86.91,59a10.45,10.45,0,0,0,1.43,1.73,8.07,8.07,0,0,1,1.56,2,10.34,10.34,0,0,1,.73,2,10.46,10.46,0,0,1,.27,1.81"></path><path class="cls-40" d="M66.52,79.38l-3.75,2.11,1-6.15a4.32,4.32,0,0,1,2.81-7.58h.11a4.32,4.32,0,0,1,2.62,7.67l1,6.06Z"></path><path class="cls-11" d="M66.54,68.11h.1a4,4,0,0,1,2.25,7.17l.87,5.55L66.53,79l-3.31,1.85.88-5.63a4,4,0,0,1,2.44-7.09m0-.7a4.67,4.67,0,0,0-3.19,8.06l-.81,5.26-.22,1.41,1.25-.7,2.95-1.66,2.9,1.66,1.26.72-.23-1.43-.81-5.16a4.66,4.66,0,0,0-3-8.15Z"></path><path class="cls-11" d="M73,57.74a6.49,6.49,0,1,1-6.49-6.49A6.49,6.49,0,0,1,73,57.74"></path><path class="cls-42" d="M73,57.74a6.49,6.49,0,1,1-6.49-6.49A6.49,6.49,0,0,1,73,57.74Z"></path><path class="cls-40" d="M70.91,53.11l-.32-.28.15.34.17-.06"></path><path class="cls-40" d="M70.43,53.28c-.12-.29-.25-.57-.39-.85a6.23,6.23,0,0,0-2.1-.89,13.13,13.13,0,0,1,1,2.16,11.69,11.69,0,0,0,1.51-.42"></path><path class="cls-40" d="M64.07,54a10.61,10.61,0,0,1-1.54-.41,11.28,11.28,0,0,0-.47,1.63,13.52,13.52,0,0,0,1.64.51A11.6,11.6,0,0,1,64.07,54"></path><path class="cls-40" d="M63.54,57.75a11.52,11.52,0,0,1,.11-1.67,11.91,11.91,0,0,1-1.64-.5,11.14,11.14,0,0,0-.17,1.92c0,.1,0,.2,0,.3h1.69Z"></path><path class="cls-40" d="M63.56,58.12H61.87a10.84,10.84,0,0,0,.36,2.28,11.12,11.12,0,0,1,1.52-.46,12.2,12.2,0,0,1-.19-1.82"></path><path class="cls-40" d="M62.22,53.51l-.28-.09a6.3,6.3,0,0,0-1,1.33c.26.14.52.26.78.37a12.89,12.89,0,0,1,.47-1.61"></path><path class="cls-40" d="M69.13,55.84a13.57,13.57,0,0,0-.43-1.78,13.42,13.42,0,0,1-2,.2v1.85a12.39,12.39,0,0,0,2.43-.27"></path><path class="cls-40" d="M66.37,56.1V54.26a11.7,11.7,0,0,1-2-.17A11.25,11.25,0,0,0,64,55.83a11.6,11.6,0,0,0,2.35.27"></path><path class="cls-40" d="M61.54,58.12H60.25a6.21,6.21,0,0,0,.82,2.77,9,9,0,0,1,.84-.38,11.9,11.9,0,0,1-.37-2.39"></path><path class="cls-40" d="M62.44,52.92c-.08.08-.17.15-.25.24l.14.05c0-.1.08-.19.11-.29"></path><path class="cls-40" d="M61.51,57.5a11.76,11.76,0,0,1,.19-2,8.59,8.59,0,0,1-.87-.4,6.39,6.39,0,0,0-.61,2.69v.06h1.3c0-.1,0-.2,0-.3"></path><path class="cls-40" d="M64.18,53.72a12.26,12.26,0,0,1,1-2.16,6.3,6.3,0,0,0-2.12.92c-.13.28-.26.55-.38.83a10.61,10.61,0,0,0,1.54.41"></path><path class="cls-40" d="M66.37,62a13.14,13.14,0,0,0-1.66.16A11.82,11.82,0,0,0,65.64,64a5.82,5.82,0,0,0,.73.07Z"></path><path class="cls-40" d="M69.44,55.76A12.65,12.65,0,0,0,71,55.28a12.13,12.13,0,0,0-.49-1.69A13.55,13.55,0,0,1,69,54a13.08,13.08,0,0,1,.41,1.75"></path><path class="cls-40" d="M69.63,57.77v0h1.6c0-.1,0-.2,0-.3a12,12,0,0,0-.17-1.9,12.69,12.69,0,0,1-1.59.49,13.28,13.28,0,0,1,.14,1.68"></path><path class="cls-40" d="M66.37,51.4a7,7,0,0,0-.8.08,12.19,12.19,0,0,0-1.06,2.29,13,13,0,0,0,1.86.17Z"></path><path class="cls-40" d="M66.7,53.94a13.3,13.3,0,0,0,1.89-.19,12.85,12.85,0,0,0-1.08-2.28,5.42,5.42,0,0,0-.81-.07Z"></path><path class="cls-40" d="M69.45,60a12.12,12.12,0,0,1,1.42.42,12,12,0,0,0,.34-2.25h-1.6A13.83,13.83,0,0,1,69.45,60"></path><path class="cls-40" d="M62.3,60.71a10.66,10.66,0,0,0,.57,1.49,13.41,13.41,0,0,1,1.39-.34,15.3,15.3,0,0,1-.46-1.6,13.56,13.56,0,0,0-1.5.45"></path><path class="cls-40" d="M66.7,59.94v1.68a13.85,13.85,0,0,1,1.94.17,12.15,12.15,0,0,0,.43-1.6,12.37,12.37,0,0,0-2.37-.25"></path><path class="cls-40" d="M71.33,55.15c.29-.12.57-.25.85-.39a7,7,0,0,0-1-1.39l-.32.11a11,11,0,0,1,.48,1.67"></path><path class="cls-40" d="M69,61.84c.43.08.85.18,1.27.3a9.36,9.36,0,0,0,.54-1.45,10.64,10.64,0,0,0-1.39-.42A11.69,11.69,0,0,1,69,61.84"></path><path class="cls-40" d="M66.7,64.08a7,7,0,0,0,.92-.09,12.06,12.06,0,0,0,.91-1.88A11.12,11.12,0,0,0,66.7,62Z"></path><path class="cls-40" d="M64.13,60.19a12.38,12.38,0,0,0,.46,1.61,15.1,15.1,0,0,1,1.78-.17V60a11.13,11.13,0,0,0-2.24.24"></path><path class="cls-40" d="M68.86,62.15a12,12,0,0,1-.8,1.75,6.14,6.14,0,0,0,1.58-.6c.16-.28.31-.57.46-.86-.41-.11-.82-.21-1.24-.29"></path><path class="cls-40" d="M70.24,62.91c.13-.09.26-.18.39-.29l-.21-.07c-.07.12-.12.24-.18.36"></path><path class="cls-40" d="M70.56,62.25l.34.12a6.07,6.07,0,0,0,1-1.2c-.27-.13-.54-.26-.81-.37a12.64,12.64,0,0,1-.54,1.45"></path><path class="cls-40" d="M66.37,56.43a12.26,12.26,0,0,1-2.4-.27,11.87,11.87,0,0,0-.1,1.58v.06h2.5Z"></path><path class="cls-40" d="M66.7,59.61a13.1,13.1,0,0,1,2.43.26,12.65,12.65,0,0,0,.15-1.75H66.7Z"></path><path class="cls-40" d="M63.89,58.12a12.51,12.51,0,0,0,.18,1.74,12.64,12.64,0,0,1,2.3-.24v-1.5Z"></path><path class="cls-40" d="M66.7,57.8h2.6v0a11,11,0,0,0-.13-1.62,12.07,12.07,0,0,1-2.47.28Z"></path><path class="cls-40" d="M71.18,60.48c.31.12.6.26.9.4a6.3,6.3,0,0,0,.82-2.76H71.54a11.6,11.6,0,0,1-.36,2.36"></path><path class="cls-40" d="M62,60.83c-.26.1-.5.22-.75.34a6.22,6.22,0,0,0,1,1.24l.27-.09A11.71,11.71,0,0,1,62,60.83"></path><path class="cls-40" d="M71.57,57.5c0,.1,0,.2,0,.3h1.36v-.06a6.3,6.3,0,0,0-.6-2.68c-.31.15-.61.3-.93.43a12.21,12.21,0,0,1,.18,2"></path><path class="cls-40" d="M62.57,62.66l.24.18c0-.07-.07-.15-.11-.23l-.13,0"></path><path class="cls-40" d="M63,62.5c.12.25.26.5.4.74a6.54,6.54,0,0,0,1.8.7,11.87,11.87,0,0,1-.83-1.77A12.43,12.43,0,0,0,63,62.5"></path><path class="cls-11" d="M65.4,73.41a2.59,2.59,0,0,1-.65-.39,1.91,1.91,0,0,1-.52-.76,2.49,2.49,0,0,1-.18-1,2.37,2.37,0,0,1,.67-1.75,2.4,2.4,0,0,1,1.78-.67,2.94,2.94,0,0,1,1.36.28,2.09,2.09,0,0,1,.87.85,2.51,2.51,0,0,1,.32,1.28,2.41,2.41,0,0,1-.32,1.26,2.09,2.09,0,0,1-1,.85l1.15-.08h.25v.81H66.88v-.85a1.76,1.76,0,0,0,.54-.37,1.83,1.83,0,0,0,.4-.68,2.55,2.55,0,0,0,.13-.84,1.88,1.88,0,0,0-.4-1.31,1.31,1.31,0,0,0-1-.44,1.25,1.25,0,0,0-1,.46,1.83,1.83,0,0,0-.4,1.27,2.5,2.5,0,0,0,.15.88,1.74,1.74,0,0,0,.44.69,1.51,1.51,0,0,0,.5.34v.85H64v-.81h.34Z"></path><path class="cls-8" d="M263.37,101.8v1h-2.9v1.46h2.9v1h-2.9v1.45h2.9v1h-3.85V101.8Zm-8,4.82a1.86,1.86,0,0,0,.75-.15,1.75,1.75,0,0,0,.61-.42,1.89,1.89,0,0,0,.42-.62,1.9,1.9,0,0,0,0-1.48,2,2,0,0,0-.42-.62,1.89,1.89,0,0,0-.62-.42,1.85,1.85,0,0,0-.74-.15h-1v3.86Zm-1.92-4.82h1.93a2.79,2.79,0,0,1,1.11.23,2.9,2.9,0,0,1,1.54,1.54,2.84,2.84,0,0,1,0,2.24,3,3,0,0,1-.62.92,2.82,2.82,0,0,1-.92.62,2.63,2.63,0,0,1-1.11.23h-1.93Zm-2.77,4.82h-2.66l-.49,1H246.5l2.89-5.78,2.89,5.78H251.2Zm-2.18-1h1.7l-.85-1.69Zm-4.37,1.92-1.12-1.93h-1.63v1.93h-.95V101.8h2.89a1.95,1.95,0,0,1,1.92,1.92,2,2,0,0,1-.34,1.1,1.9,1.9,0,0,1-.85.69l1.19,2.07Zm-.81-4.82h-1.94v1.92h1.94a.91.91,0,0,0,.67-.28.94.94,0,0,0,.29-.69,1,1,0,0,0-1-1m-8.93-1h4.82v1h-1.92v4.82h-1v-4.82h-1.93Zm-6,2.32v3.46h-1V101.8l2.89,2.89,2.9-2.89v5.78h-1v-3.46l-1.92,1.94Zm-5.07-1.36a1.93,1.93,0,0,0-1.93,1.93,1.91,1.91,0,0,0,1.93,1.93,1.92,1.92,0,0,0,1.35-3.29,1.83,1.83,0,0,0-1.35-.57m0-1a2.71,2.71,0,0,1,2,.85,2.75,2.75,0,0,1,.86,2,2.92,2.92,0,0,1-2.89,2.89,2.9,2.9,0,0,1-2.89-2.89,2.78,2.78,0,0,1,.85-2,2.72,2.72,0,0,1,2-.85m-5.37,0a2.8,2.8,0,0,1,1.12.22,3,3,0,0,1,.92.63l-.69.68a1.83,1.83,0,0,0-1.35-.57,1.86,1.86,0,0,0-.75.15,2,2,0,0,0-1,1,2,2,0,0,0,0,1.5,2,2,0,0,0,.41.62,2,2,0,0,0,.61.41,1.94,1.94,0,0,0,.76.15,1.87,1.87,0,0,0,1.35-.56l.69.67a3,3,0,0,1-.92.63,2.8,2.8,0,0,1-1.12.22,2.69,2.69,0,0,1-1.13-.23,3,3,0,0,1-.92-.62,2.86,2.86,0,0,1-.85-2,2.79,2.79,0,0,1,.23-1.11,3.09,3.09,0,0,1,.62-.93,3,3,0,0,1,.92-.62,2.85,2.85,0,0,1,1.13-.23"></path><path class="cls-43" d="M198.82,100.8c-1.53.77-2.53,1.75-2.53,3,4.89.51,5.13-.89,7.14-2.14a10.41,10.41,0,0,0-4.61-.85"></path></g><g class="cls-44"><g class="cls-45"><g class="cls-46"><g class="cls-47"><g class="cls-48"><g class="cls-46"><g class="cls-49"><rect class="cls-50" x="185.51" y="88.18" width="28.71" height="28.71" transform="translate(-2.38 200.3) rotate(-52.96)"></rect></g></g></g></g></g></g></g><g class="cls-7"><path class="cls-43" d="M199.67,100.2a12.37,12.37,0,0,1,4-.71c4.25-.14,7.72,1.78,7.72,4.27-5.83.61-4.64-1.66-8-2.92a10.71,10.71,0,0,0-3.77-.64"></path><path class="cls-43" d="M198.82,108.58c-1.53-.77-2.53-1.75-2.53-3,4.89-.52,5.13.88,7.14,2.13a10.41,10.41,0,0,1-4.61.85"></path></g><g class="cls-51"><g class="cls-45"><g class="cls-52"><g class="cls-53"><g class="cls-54"><g class="cls-52"><g class="cls-55"><rect class="cls-56" x="185.51" y="92.49" width="28.71" height="28.71" transform="translate(-24.03 141.96) rotate(-37.04)"></rect></g></g></g></g></g></g></g><g class="cls-7"><path class="cls-43" d="M199.67,109.18a12.37,12.37,0,0,0,4,.71c4.25.14,7.72-1.78,7.72-4.27-5.83-.61-4.64,1.66-8,2.92a10.47,10.47,0,0,1-3.76.64"></path><path class="cls-8" d="M268.68,97.1s0,.23.05.65.07,1,.09,1.72.06,1.54.07,2.43,0,1.84,0,2.79,0,1.9,0,2.79-.05,1.72-.07,2.43-.07,1.31-.09,1.72-.05.65-.05.65,0-.23,0-.65-.07-1-.09-1.72-.06-1.54-.07-2.43,0-1.84,0-2.79,0-1.9,0-2.79,0-1.72.07-2.43.07-1.31.09-1.72,0-.65,0-.65"></path><path class="cls-8" d="M126.32,103.64c0-.72,0-.88-.27-.92l-.33-.06c-.1,0-.08-.24,0-.28.62,0,1.18-.06,1.77-.06a4.16,4.16,0,0,1,1.32.18,1.34,1.34,0,0,1,.89,1.29,1.28,1.28,0,0,1-.91,1.26,2.62,2.62,0,0,1-1,.16.15.15,0,0,1,0-.19,1.16,1.16,0,0,0,1-1.26,1.05,1.05,0,0,0-1.2-1.12c-.45,0-.45.06-.45.37v3c0,.76,0,.82.51.89l.26,0c.07,0,.06.24,0,.27l-1.16,0c-.36,0-.7,0-1.08,0-.09,0-.1-.22,0-.27l.16,0c.47-.1.52-.13.52-.89Z"></path><path class="cls-8" d="M137,104.72a2.53,2.53,0,0,1-2.67,2.57,2.5,2.5,0,0,1-2.72-2.51,2.57,2.57,0,0,1,2.72-2.58,2.46,2.46,0,0,1,2.67,2.52m-4.41-.11c0,1.13.51,2.36,1.79,2.36.84,0,1.64-.58,1.64-2.09,0-1.17-.56-2.36-1.77-2.36-.79,0-1.66.54-1.66,2.09"></path><path class="cls-8" d="M139.24,103.1a.73.73,0,0,0-.52-.44l-.23-.07a.2.2,0,0,1,0-.27c.24,0,.59,0,.83,0s.61,0,1,0c.1.05.08.22,0,.27l-.14,0c-.3.06-.23.13,0,.69l1,2.05c.17.35.31.64.4.79.09-.16.2-.37.41-.8l.19-.4a.33.33,0,0,0,0-.37l-.81-1.64a.53.53,0,0,0-.47-.32l-.2,0c-.08,0-.06-.23,0-.27s.54,0,.85,0,.62,0,.84,0a.18.18,0,0,1,0,.27l-.13,0c-.2.05-.22.1-.1.35l.1.21c.2.42.28.6.39.82.11-.22.22-.42.33-.65l.19-.4c.11-.26.07-.29-.18-.33l-.19,0a.16.16,0,0,1,0-.27,6.94,6.94,0,0,0,.75,0c.26,0,.57,0,.76,0a.19.19,0,0,1,0,.27l-.19,0c-.36.06-.47.29-.63.55l-.57,1c-.09.17-.1.2,0,.41l.3.61c.22.45.38.74.47.94.09-.2.18-.36.44-1l.78-1.83c.27-.62.31-.67,0-.71l-.22,0a.2.2,0,0,1,0-.27c.3,0,.54,0,.83,0l.82,0c.09.05.1.23,0,.27l-.31.07c-.33.07-.4.18-.74.92l-1.05,2.25c-.22.47-.42,1-.63,1.41a.14.14,0,0,1-.13.05.18.18,0,0,1-.13-.05,22.18,22.18,0,0,0-1-2c-.35.71-.87,1.71-1,2a.14.14,0,0,1-.13.05.18.18,0,0,1-.13-.05,12.54,12.54,0,0,0-.53-1.15Z"></path><path class="cls-8" d="M148.57,103.51c0-.76,0-.79-.46-.88l-.16,0a.18.18,0,0,1,0-.27q.48,0,1,0h1.56c.49,0,.93,0,1,0,0,.13.06.65.12,1.12a.2.2,0,0,1-.29,0,1.49,1.49,0,0,0-.19-.52c-.18-.27-.68-.27-.94-.27h-.49c-.38,0-.39,0-.39.35v1.22c0,.2,0,.23.21.23h.52c.58,0,.63-.09.72-.42l.06-.21a.18.18,0,0,1,.27,0c0,.32,0,.52,0,.77s0,.47,0,.79a.18.18,0,0,1-.27,0l-.06-.21c-.09-.33-.14-.42-.72-.42h-.52c-.21,0-.21,0-.21.25v.79a1.65,1.65,0,0,0,.12.8c.1.11.3.15.92.15s1.12,0,1.44-.91c.07-.08.25-.06.28,0a4,4,0,0,1-.33,1.22l-1.87,0h-1l-1.22,0c-.09,0-.1-.22,0-.27l.29,0c.48-.06.52-.13.52-.89Z"></path><path class="cls-8" d="M154.61,103.64c0-.72,0-.9-.27-.94l-.3,0c-.09,0-.11-.24,0-.27.6,0,1.22-.07,1.82-.07,1,0,2.14.16,2.14,1.32a1.27,1.27,0,0,1-1,1.18c-.05,0,0,.11,0,.16a6.78,6.78,0,0,0,1.4,1.77,1,1,0,0,0,.58.23.13.13,0,0,1,0,.18,1.67,1.67,0,0,1-.46,0,1.73,1.73,0,0,1-1.54-.83c-.28-.35-.58-.84-.81-1.19a.5.5,0,0,0-.44-.17c-.28,0-.3,0-.3.17V106c0,.75,0,.81.51.87l.26,0c.07,0,.06.24,0,.27l-1.16,0c-.36,0-.7,0-1.08,0a.16.16,0,0,1,0-.27l.16,0c.47-.09.52-.12.52-.87Zm.84.8c0,.28,0,.28.55.28.71,0,1.09-.29,1.09-1a1,1,0,0,0-1.16-1c-.41,0-.48,0-.48.31Z"></path><path class="cls-8" d="M161.06,103.51c0-.76,0-.79-.46-.88l-.15,0c-.08,0-.07-.23,0-.27q.48,0,1,0h1.57c.48,0,.92,0,1,0,0,.13.07.65.12,1.12a.19.19,0,0,1-.28,0,1.67,1.67,0,0,0-.2-.52c-.18-.27-.67-.27-.94-.27h-.48c-.39,0-.4,0-.4.35v1.22c0,.2,0,.23.21.23h.52c.58,0,.64-.09.72-.42l.06-.21a.19.19,0,0,1,.28,0,7.23,7.23,0,0,0,0,.77,7.31,7.31,0,0,0,0,.79.2.2,0,0,1-.28,0l-.06-.21c-.08-.33-.14-.42-.72-.42h-.52c-.21,0-.21,0-.21.25v.79a1.65,1.65,0,0,0,.12.8c.1.11.3.15.93.15s1.11,0,1.43-.91a.19.19,0,0,1,.29,0,4.27,4.27,0,0,1-.33,1.22l-1.88,0h-1l-1.22,0c-.09,0-.1-.22,0-.27l.3,0c.47-.06.51-.13.51-.89Z"></path><path class="cls-8" d="M167.1,103.64c0-.72,0-.9-.26-.94l-.34,0c-.09,0-.08-.24,0-.27.61,0,1.23-.07,2.12-.07a5.29,5.29,0,0,1,1.68.24,2.16,2.16,0,0,1,1.52,2.16,2.34,2.34,0,0,1-1.34,2.12,3.65,3.65,0,0,1-1.66.35c-.5,0-1-.06-1.32-.06s-.7,0-1.12,0a.2.2,0,0,1,0-.28l.21,0c.48-.07.52-.12.52-.87Zm.84,2.17c0,.7.11,1.06.94,1.06,1.33,0,2-.83,2-2.17a2,2,0,0,0-2.2-2.06,1.12,1.12,0,0,0-.66.12c-.06,0-.06.19-.06.43Z"></path><path class="cls-8" d="M178.37,103.64c0-.72,0-.89-.32-.94l-.34,0c-.1,0-.09-.24,0-.28.55,0,1.2-.06,1.84-.06a4.06,4.06,0,0,1,1.4.16,1,1,0,0,1,.69,1c0,.48-.32.77-.88,1,0,.08,0,.09.28.14a1.24,1.24,0,0,1,1,1.21,1.18,1.18,0,0,1-.73,1.14,3.64,3.64,0,0,1-1.5.25c-.22,0-.58,0-1,0l-1.15,0c-.09,0-.1-.22,0-.27l.21,0c.48-.08.52-.13.52-.89Zm.84.58c0,.18,0,.19.37.19.69,0,1.17-.17,1.17-.86s-.5-.91-1.06-.91-.48.1-.48.3Zm0,1.77c0,.66.14.86.82.86a1,1,0,0,0,1.07-1c0-.86-.66-1.13-1.37-1.13-.5,0-.52,0-.52.19Z"></path><path class="cls-8" d="M185.62,105.67a1.52,1.52,0,0,0-.31-.94l-.81-1.49c-.23-.44-.33-.54-.62-.59l-.29-.06c-.07-.06-.05-.24,0-.27.37,0,.62,0,1,0s.58,0,.94,0c.08,0,.12.22,0,.27l-.16,0c-.24.05-.27.12-.1.46l.41.78c.18.33.33.63.5.91.17-.29.34-.56.52-.91l.44-.8c.17-.31.19-.41-.07-.44l-.23,0a.16.16,0,0,1,0-.27l.84,0,.78,0c.08,0,.11.22,0,.27l-.27.06c-.34.06-.39.13-.73.68l-.69,1.1c-.39.63-.42.74-.42,1.06v.6c0,.64.05.71.52.77l.28,0c.07,0,.06.24,0,.27l-1.19,0-1.19,0c-.09,0-.1-.22,0-.27l.27,0c.48-.06.52-.13.52-.77Z"></path><path class="cls-57" d="M279.88,98.47a5.88,5.88,0,1,1-5.87,5.88,5.88,5.88,0,0,1,5.87-5.88"></path><path class="cls-41" d="M278.92,100.8l-1.85,6h1.85v-6m.34,6H283c.06,0,.1.08.1.17a.17.17,0,0,1-.08.16l-3.82,2-.08,0a.18.18,0,0,1-.17-.17v-1.87H276.8a.15.15,0,0,1-.11-.2l2.24-7.25a.16.16,0,0,1,.16-.13.17.17,0,0,1,.17.16Zm0,2,3.06-1.62h-3.06Z"></path><path class="cls-57" d="M287.83,107.8h1.39v-8h-1.39Zm4,0h-1.4v-5.7h1.4Zm-1.53-7.27a.83.83,0,0,0,1.66,0,.83.83,0,0,0-1.66,0m8.38,7.27v-3c0-1.78-1.07-2.79-2.41-2.79a2.55,2.55,0,0,0-1.86.86l-.09-.77h-1.26v5.68h1.4v-2.9a1.49,1.49,0,0,1,1.45-1.59,1.36,1.36,0,0,1,1.37,1.52v3Zm1.17-8v8h1.41v-2.57l2.22,2.57h1.69v-.1l-2.64-2.9,2.32-2.59v-.08h-1.68l-1.91,2.28V99.76Z"></path><path class="cls-58" d="M310,102.53a2.89,2.89,0,0,0-1.61-.52,2.77,2.77,0,0,0,0,5.53c1.06,0,2.15.48,2.15,1.7s-1,1.71-2.15,1.71-2.13-.55-2.13-1.71h-.56c0,1.44,1.18,2.26,2.69,2.26s2.7-.73,2.7-2.26a2.09,2.09,0,0,0-1.55-2,2.8,2.8,0,0,0,.83-4.35l.55-.64-.37-.32Zm-1.61,0a2,2,0,0,1,2.13,2.21,2.18,2.18,0,0,1-2.13,2.18,2.07,2.07,0,0,1-2.1-2.18,2,2,0,0,1,2.1-2.21m3.84-.46v5.68h.57v-3.31a1.88,1.88,0,0,1,1.87-1.9,1.86,1.86,0,0,1,1,.26l.25-.46a2.22,2.22,0,0,0-1.22-.33,2,2,0,0,0-1.88,1.07l0-1Zm7.14,5.76a2.77,2.77,0,0,0,2.88-2.91,2.89,2.89,0,1,0-5.77,0,2.78,2.78,0,0,0,2.89,2.91m0-.55a2.25,2.25,0,0,1-2.34-2.36,2.34,2.34,0,1,1,4.67,0,2.24,2.24,0,0,1-2.33,2.36m9.32.47v-5.7h-.57v3.17a2,2,0,0,1-2,2.07,1.82,1.82,0,0,1-2-2V102.1h-.57v3.28a2.37,2.37,0,0,0,2.57,2.51,2.25,2.25,0,0,0,2-1.11v1Zm4.37-.44a2.39,2.39,0,0,1,0-4.78,2.39,2.39,0,0,1,0,4.78m-2.35,2.81v-3.68a2.56,2.56,0,0,0,2.35,1.41,2.93,2.93,0,0,0,.12-5.86,2.71,2.71,0,0,0-2.46,1.42v-1.34h-.55v8Z"></path></g></g></g></g></g></g></svg> 